G04 #@! TF.GenerationSoftware,KiCad,Pcbnew,(5.1.5)-3*
G04 #@! TF.CreationDate,2021-10-16T16:50:23+02:00*
G04 #@! TF.ProjectId,reader,72656164-6572-42e6-9b69-6361645f7063,rev?*
G04 #@! TF.SameCoordinates,Original*
G04 #@! TF.FileFunction,Copper,L2,Bot*
G04 #@! TF.FilePolarity,Positive*
%FSLAX46Y46*%
G04 Gerber Fmt 4.6, Leading zero omitted, Abs format (unit mm)*
G04 Created by KiCad (PCBNEW (5.1.5)-3) date 2021-10-16 16:50:23*
%MOMM*%
%LPD*%
G04 APERTURE LIST*
%ADD10C,0.010000*%
%ADD11C,2.000000*%
%ADD12C,4.500000*%
%ADD13O,1.700000X1.700000*%
%ADD14R,1.700000X1.700000*%
%ADD15R,1.000000X1.000000*%
%ADD16C,2.700000*%
%ADD17C,0.100000*%
%ADD18O,1.600000X0.900000*%
%ADD19C,0.800000*%
%ADD20C,0.400000*%
%ADD21C,0.250000*%
%ADD22C,0.254000*%
G04 APERTURE END LIST*
D10*
G36*
X186504691Y-75997355D02*
G01*
X186502042Y-60998125D01*
X111503250Y-60992831D01*
X111503250Y-89303250D01*
X184803425Y-89303250D01*
X184798125Y-62702042D01*
X148997354Y-62699395D01*
X113196584Y-62696747D01*
X113196584Y-87599334D01*
X183099500Y-87599334D01*
X183099500Y-64400667D01*
X114900500Y-64400667D01*
X114900500Y-85906000D01*
X115905917Y-85906000D01*
X115905917Y-65406084D01*
X182094084Y-65406084D01*
X182094084Y-86604500D01*
X114202000Y-86604500D01*
X114202000Y-63702167D01*
X183798000Y-63702167D01*
X183798000Y-88308417D01*
X112508667Y-88308417D01*
X112508667Y-61998250D01*
X185501917Y-61998250D01*
X185501917Y-90001750D01*
X111503250Y-90001750D01*
X111503250Y-90996584D01*
X186507341Y-90996584D01*
X186504691Y-75997355D01*
G37*
X186504691Y-75997355D02*
X186502042Y-60998125D01*
X111503250Y-60992831D01*
X111503250Y-89303250D01*
X184803425Y-89303250D01*
X184798125Y-62702042D01*
X148997354Y-62699395D01*
X113196584Y-62696747D01*
X113196584Y-87599334D01*
X183099500Y-87599334D01*
X183099500Y-64400667D01*
X114900500Y-64400667D01*
X114900500Y-85906000D01*
X115905917Y-85906000D01*
X115905917Y-65406084D01*
X182094084Y-65406084D01*
X182094084Y-86604500D01*
X114202000Y-86604500D01*
X114202000Y-63702167D01*
X183798000Y-63702167D01*
X183798000Y-88308417D01*
X112508667Y-88308417D01*
X112508667Y-61998250D01*
X185501917Y-61998250D01*
X185501917Y-90001750D01*
X111503250Y-90001750D01*
X111503250Y-90996584D01*
X186507341Y-90996584D01*
X186504691Y-75997355D01*
D11*
X139160000Y-95600000D03*
X141700000Y-95600000D03*
X144240000Y-95600000D03*
X146780000Y-95600000D03*
X149320000Y-95600000D03*
X151860000Y-95600000D03*
X154400000Y-95600000D03*
X156940000Y-95600000D03*
X159480000Y-95600000D03*
X162020000Y-95600000D03*
X164560000Y-95600000D03*
X167100000Y-95600000D03*
X169640000Y-95600000D03*
X172180000Y-95600000D03*
X174720000Y-95600000D03*
X177260000Y-95600000D03*
D12*
X183760000Y-136600000D03*
X113760000Y-136600000D03*
X113760000Y-96600000D03*
X183760000Y-96600000D03*
D13*
X163090000Y-130250000D03*
X165630000Y-130250000D03*
X168170000Y-130250000D03*
X170710000Y-130250000D03*
D14*
X173250000Y-130250000D03*
D15*
X115400000Y-85400000D03*
X112000000Y-90500000D03*
D16*
X114540000Y-124205000D03*
G04 #@! TA.AperFunction,ComponentPad*
D17*
G36*
X115664503Y-127856204D02*
G01*
X115688772Y-127859804D01*
X115712570Y-127865765D01*
X115735670Y-127874030D01*
X115757849Y-127884520D01*
X115778892Y-127897133D01*
X115798598Y-127911748D01*
X115816776Y-127928224D01*
X115833252Y-127946402D01*
X115847867Y-127966108D01*
X115860480Y-127987151D01*
X115870970Y-128009330D01*
X115879235Y-128032430D01*
X115885196Y-128056228D01*
X115888796Y-128080497D01*
X115890000Y-128105001D01*
X115890000Y-130304999D01*
X115888796Y-130329503D01*
X115885196Y-130353772D01*
X115879235Y-130377570D01*
X115870970Y-130400670D01*
X115860480Y-130422849D01*
X115847867Y-130443892D01*
X115833252Y-130463598D01*
X115816776Y-130481776D01*
X115798598Y-130498252D01*
X115778892Y-130512867D01*
X115757849Y-130525480D01*
X115735670Y-130535970D01*
X115712570Y-130544235D01*
X115688772Y-130550196D01*
X115664503Y-130553796D01*
X115639999Y-130555000D01*
X113440001Y-130555000D01*
X113415497Y-130553796D01*
X113391228Y-130550196D01*
X113367430Y-130544235D01*
X113344330Y-130535970D01*
X113322151Y-130525480D01*
X113301108Y-130512867D01*
X113281402Y-130498252D01*
X113263224Y-130481776D01*
X113246748Y-130463598D01*
X113232133Y-130443892D01*
X113219520Y-130422849D01*
X113209030Y-130400670D01*
X113200765Y-130377570D01*
X113194804Y-130353772D01*
X113191204Y-130329503D01*
X113190000Y-130304999D01*
X113190000Y-128105001D01*
X113191204Y-128080497D01*
X113194804Y-128056228D01*
X113200765Y-128032430D01*
X113209030Y-128009330D01*
X113219520Y-127987151D01*
X113232133Y-127966108D01*
X113246748Y-127946402D01*
X113263224Y-127928224D01*
X113281402Y-127911748D01*
X113301108Y-127897133D01*
X113322151Y-127884520D01*
X113344330Y-127874030D01*
X113367430Y-127865765D01*
X113391228Y-127859804D01*
X113415497Y-127856204D01*
X113440001Y-127855000D01*
X115639999Y-127855000D01*
X115664503Y-127856204D01*
G37*
G04 #@! TD.AperFunction*
D13*
X171500000Y-109180000D03*
X171500000Y-106640000D03*
D14*
X171500000Y-104100000D03*
D18*
X112040000Y-113405000D03*
X112040000Y-120005000D03*
D19*
X122000000Y-101300000D03*
X115500000Y-85499998D03*
X121975000Y-97674988D03*
X116800000Y-97000000D03*
X148000000Y-109000000D03*
X167750000Y-125000000D03*
X167500000Y-117000000D03*
X165250000Y-114000000D03*
X122400000Y-129600000D03*
X122400000Y-127300000D03*
X142300000Y-103000000D03*
X124800000Y-106200000D03*
X152400000Y-108300000D03*
X155800000Y-108400000D03*
X144700000Y-108750000D03*
X124910000Y-119460000D03*
X126900000Y-119420000D03*
X122720000Y-123400000D03*
X129240000Y-126220000D03*
X131490000Y-126350000D03*
X133970000Y-126410000D03*
X133810000Y-128410000D03*
X129360000Y-128290000D03*
X131680000Y-128320000D03*
X131710000Y-130450000D03*
X133590000Y-130450000D03*
X129640000Y-130480000D03*
X135410000Y-104790000D03*
X137150000Y-104920000D03*
X138560000Y-104770000D03*
X133700000Y-107625000D03*
X122675000Y-106100000D03*
X127150000Y-95850000D03*
X125475000Y-95850000D03*
X125375000Y-101225000D03*
X127150000Y-101175000D03*
X128400000Y-106575000D03*
X130350000Y-106725000D03*
X130275000Y-108750000D03*
X128425000Y-108725000D03*
X135150000Y-108750000D03*
X116260000Y-118170000D03*
X135650000Y-110650000D03*
X137300000Y-108700000D03*
X161752786Y-105405571D03*
X176510000Y-98440000D03*
X132425010Y-103960000D03*
X123300000Y-104500000D03*
X158240000Y-106960000D03*
X128915000Y-117705000D03*
X128915000Y-119380000D03*
X125165000Y-126250000D03*
X142300000Y-104750000D03*
X125650000Y-124450000D03*
X126900000Y-123200000D03*
X128200000Y-121900000D03*
X134500000Y-122250000D03*
X141000000Y-122500000D03*
X139600000Y-107800000D03*
X132400000Y-110600000D03*
X137500000Y-125000000D03*
X142500000Y-127500000D03*
X140000000Y-127500000D03*
X137500000Y-127500000D03*
X137500000Y-130000000D03*
X140000000Y-130000000D03*
X142500000Y-130000000D03*
X124200000Y-114200000D03*
X142500000Y-125000000D03*
X140000000Y-125000000D03*
X161512653Y-114512653D03*
X157500000Y-108499996D03*
X160000000Y-110750000D03*
X162637660Y-111387660D03*
X125800000Y-107250000D03*
X124800000Y-111999996D03*
X162736767Y-106711853D03*
X162000000Y-113000000D03*
X166000000Y-103250000D03*
X166500000Y-105824990D03*
X167500000Y-103250000D03*
X167498577Y-106053554D03*
X127076538Y-111400000D03*
X126800000Y-112850012D03*
X153500000Y-113975000D03*
X153500000Y-112750000D03*
D20*
X122000000Y-101300000D02*
X122000000Y-97699988D01*
X122000000Y-97699988D02*
X121975000Y-97674988D01*
X116800000Y-95300000D02*
X116800000Y-97000000D01*
X112000000Y-90500000D02*
X116800000Y-95300000D01*
D21*
X131711411Y-109911411D02*
X126903315Y-109911411D01*
X132400000Y-110600000D02*
X131711411Y-109911411D01*
X126250011Y-112149989D02*
X124200000Y-114200000D01*
X126903315Y-109911411D02*
X126250011Y-110564715D01*
X126250011Y-110564715D02*
X126250011Y-112149989D01*
X161512653Y-114512653D02*
X157500000Y-110500000D01*
X157500000Y-110500000D02*
X157500000Y-108499996D01*
X160000000Y-110750000D02*
X162000000Y-110750000D01*
X162000000Y-110750000D02*
X162637660Y-111387660D01*
X125800000Y-110999996D02*
X124800000Y-111999996D01*
X125800000Y-107250000D02*
X125800000Y-110999996D01*
X162098322Y-113000000D02*
X162000000Y-113000000D01*
X163362661Y-111735661D02*
X162098322Y-113000000D01*
X162736767Y-106711853D02*
X163362661Y-107337747D01*
X163362661Y-107337747D02*
X163362661Y-111735661D01*
X166500000Y-103750000D02*
X166500000Y-105824990D01*
X166000000Y-103250000D02*
X166500000Y-103750000D01*
X167500000Y-106052131D02*
X167498577Y-106053554D01*
X167500000Y-103250000D02*
X167500000Y-106052131D01*
X127076538Y-112573474D02*
X126800000Y-112850012D01*
X127076538Y-111400000D02*
X127076538Y-112573474D01*
X168170000Y-130250000D02*
X168170000Y-128645000D01*
X168170000Y-128645000D02*
X153500000Y-113975000D01*
X170710000Y-129960000D02*
X170710000Y-130250000D01*
X153500000Y-112750000D02*
X170710000Y-129960000D01*
D22*
G36*
X113007634Y-92688501D02*
G01*
X114034132Y-93715000D01*
X113475852Y-93715000D01*
X112918477Y-93825869D01*
X112393440Y-94043346D01*
X111920920Y-94359074D01*
X111519074Y-94760920D01*
X111203346Y-95233440D01*
X110985869Y-95758477D01*
X110875000Y-96315852D01*
X110875000Y-96884148D01*
X110985869Y-97441523D01*
X111203346Y-97966560D01*
X111519074Y-98439080D01*
X111920920Y-98840926D01*
X112393440Y-99156654D01*
X112918477Y-99374131D01*
X113475852Y-99485000D01*
X114044148Y-99485000D01*
X114601523Y-99374131D01*
X115126560Y-99156654D01*
X115599080Y-98840926D01*
X116000926Y-98439080D01*
X116316654Y-97966560D01*
X116333092Y-97926876D01*
X116498102Y-97995226D01*
X116698061Y-98035000D01*
X116901939Y-98035000D01*
X117101898Y-97995226D01*
X117290256Y-97917205D01*
X117459774Y-97803937D01*
X117603937Y-97659774D01*
X117661884Y-97573049D01*
X120940000Y-97573049D01*
X120940000Y-97776927D01*
X120979774Y-97976886D01*
X121057795Y-98165244D01*
X121165001Y-98325689D01*
X121165000Y-100686715D01*
X121082795Y-100809744D01*
X121004774Y-100998102D01*
X120965000Y-101198061D01*
X120965000Y-101401939D01*
X121004774Y-101601898D01*
X121082795Y-101790256D01*
X121196063Y-101959774D01*
X121340226Y-102103937D01*
X121509744Y-102217205D01*
X121698102Y-102295226D01*
X121898061Y-102335000D01*
X122101939Y-102335000D01*
X122301898Y-102295226D01*
X122490256Y-102217205D01*
X122659774Y-102103937D01*
X122803937Y-101959774D01*
X122917205Y-101790256D01*
X122995226Y-101601898D01*
X123035000Y-101401939D01*
X123035000Y-101198061D01*
X122995226Y-100998102D01*
X122917205Y-100809744D01*
X122835000Y-100686715D01*
X122835000Y-98250858D01*
X122892205Y-98165244D01*
X122970226Y-97976886D01*
X123010000Y-97776927D01*
X123010000Y-97573049D01*
X122970226Y-97373090D01*
X122892205Y-97184732D01*
X122778937Y-97015214D01*
X122634774Y-96871051D01*
X122465256Y-96757783D01*
X122276898Y-96679762D01*
X122076939Y-96639988D01*
X121873061Y-96639988D01*
X121673102Y-96679762D01*
X121484744Y-96757783D01*
X121315226Y-96871051D01*
X121171063Y-97015214D01*
X121057795Y-97184732D01*
X120979774Y-97373090D01*
X120940000Y-97573049D01*
X117661884Y-97573049D01*
X117717205Y-97490256D01*
X117795226Y-97301898D01*
X117835000Y-97101939D01*
X117835000Y-96898061D01*
X117795226Y-96698102D01*
X117717205Y-96509744D01*
X117635000Y-96386715D01*
X117635000Y-95662595D01*
X137518282Y-95662595D01*
X137562039Y-95981675D01*
X137667205Y-96286088D01*
X137760186Y-96460044D01*
X138024587Y-96555808D01*
X138980395Y-95600000D01*
X138024587Y-94644192D01*
X137760186Y-94739956D01*
X137619296Y-95029571D01*
X137537616Y-95341108D01*
X137518282Y-95662595D01*
X117635000Y-95662595D01*
X117635000Y-95341018D01*
X117639040Y-95299999D01*
X117622918Y-95136311D01*
X117575172Y-94978913D01*
X117497636Y-94833854D01*
X117490810Y-94825537D01*
X117393291Y-94706709D01*
X117361428Y-94680560D01*
X115372552Y-92691684D01*
X186840000Y-92787880D01*
X186840001Y-139340000D01*
X184683923Y-139340000D01*
X185126560Y-139156654D01*
X185599080Y-138840926D01*
X186000926Y-138439080D01*
X186316654Y-137966560D01*
X186534131Y-137441523D01*
X186645000Y-136884148D01*
X186645000Y-136315852D01*
X186534131Y-135758477D01*
X186316654Y-135233440D01*
X186000926Y-134760920D01*
X185599080Y-134359074D01*
X185126560Y-134043346D01*
X184601523Y-133825869D01*
X184044148Y-133715000D01*
X183475852Y-133715000D01*
X182918477Y-133825869D01*
X182393440Y-134043346D01*
X181920920Y-134359074D01*
X181519074Y-134760920D01*
X181203346Y-135233440D01*
X180985869Y-135758477D01*
X180875000Y-136315852D01*
X180875000Y-136884148D01*
X180985869Y-137441523D01*
X181203346Y-137966560D01*
X181519074Y-138439080D01*
X181920920Y-138840926D01*
X182393440Y-139156654D01*
X182836077Y-139340000D01*
X114683923Y-139340000D01*
X115126560Y-139156654D01*
X115599080Y-138840926D01*
X116000926Y-138439080D01*
X116316654Y-137966560D01*
X116534131Y-137441523D01*
X116645000Y-136884148D01*
X116645000Y-136315852D01*
X116534131Y-135758477D01*
X116316654Y-135233440D01*
X116000926Y-134760920D01*
X115599080Y-134359074D01*
X115126560Y-134043346D01*
X114601523Y-133825869D01*
X114044148Y-133715000D01*
X113475852Y-133715000D01*
X112918477Y-133825869D01*
X112393440Y-134043346D01*
X111920920Y-134359074D01*
X111519074Y-134760920D01*
X111203346Y-135233440D01*
X110985869Y-135758477D01*
X110875000Y-136315852D01*
X110875000Y-136884148D01*
X110985869Y-137441523D01*
X111203346Y-137966560D01*
X111519074Y-138439080D01*
X111920920Y-138840926D01*
X112393440Y-139156654D01*
X112836077Y-139340000D01*
X110660000Y-139340000D01*
X110660000Y-128105001D01*
X112551928Y-128105001D01*
X112551928Y-130304999D01*
X112568992Y-130478253D01*
X112619529Y-130644850D01*
X112701595Y-130798386D01*
X112812039Y-130932961D01*
X112946614Y-131043405D01*
X113100150Y-131125471D01*
X113266747Y-131176008D01*
X113440001Y-131193072D01*
X115639999Y-131193072D01*
X115813253Y-131176008D01*
X115979850Y-131125471D01*
X116133386Y-131043405D01*
X116267961Y-130932961D01*
X116378405Y-130798386D01*
X116460471Y-130644850D01*
X116511008Y-130478253D01*
X116528072Y-130304999D01*
X116528072Y-128105001D01*
X116511008Y-127931747D01*
X116460471Y-127765150D01*
X116378405Y-127611614D01*
X116267961Y-127477039D01*
X116133386Y-127366595D01*
X115979850Y-127284529D01*
X115813253Y-127233992D01*
X115639999Y-127216928D01*
X113440001Y-127216928D01*
X113266747Y-127233992D01*
X113100150Y-127284529D01*
X112946614Y-127366595D01*
X112812039Y-127477039D01*
X112701595Y-127611614D01*
X112619529Y-127765150D01*
X112568992Y-127931747D01*
X112551928Y-128105001D01*
X110660000Y-128105001D01*
X110660000Y-125589838D01*
X113334767Y-125589838D01*
X113472724Y-125890044D01*
X113821967Y-126065882D01*
X114198804Y-126170207D01*
X114588753Y-126199009D01*
X114976828Y-126151184D01*
X115348116Y-126028568D01*
X115607276Y-125890044D01*
X115745233Y-125589838D01*
X114540000Y-124384605D01*
X113334767Y-125589838D01*
X110660000Y-125589838D01*
X110660000Y-124253753D01*
X112545991Y-124253753D01*
X112593816Y-124641828D01*
X112716432Y-125013116D01*
X112854956Y-125272276D01*
X113155162Y-125410233D01*
X114360395Y-124205000D01*
X114719605Y-124205000D01*
X115924838Y-125410233D01*
X116225044Y-125272276D01*
X116400882Y-124923033D01*
X116505207Y-124546196D01*
X116534009Y-124156247D01*
X116486184Y-123768172D01*
X116363568Y-123396884D01*
X116225044Y-123137724D01*
X115924838Y-122999767D01*
X114719605Y-124205000D01*
X114360395Y-124205000D01*
X113155162Y-122999767D01*
X112854956Y-123137724D01*
X112679118Y-123486967D01*
X112574793Y-123863804D01*
X112545991Y-124253753D01*
X110660000Y-124253753D01*
X110660000Y-122820162D01*
X113334767Y-122820162D01*
X114540000Y-124025395D01*
X115745233Y-122820162D01*
X115607276Y-122519956D01*
X115258033Y-122344118D01*
X114881196Y-122239793D01*
X114491247Y-122210991D01*
X114103172Y-122258816D01*
X113731884Y-122381432D01*
X113472724Y-122519956D01*
X113334767Y-122820162D01*
X110660000Y-122820162D01*
X110660000Y-120347253D01*
X110682741Y-120422220D01*
X110783491Y-120610710D01*
X110919078Y-120775922D01*
X111084290Y-120911509D01*
X111272780Y-121012259D01*
X111477303Y-121074300D01*
X111636706Y-121090000D01*
X112443294Y-121090000D01*
X112602697Y-121074300D01*
X112807220Y-121012259D01*
X112995710Y-120911509D01*
X113131583Y-120800000D01*
X123065000Y-120800000D01*
X123065000Y-127100000D01*
X123065010Y-127103528D01*
X123115010Y-136103528D01*
X123126597Y-136220806D01*
X123162144Y-136340105D01*
X123220282Y-136450176D01*
X123298776Y-136546791D01*
X123394611Y-136626235D01*
X123504103Y-136685457D01*
X123623045Y-136722179D01*
X123746865Y-136734992D01*
X164259365Y-136934992D01*
X164388430Y-136922388D01*
X164507432Y-136885861D01*
X164617022Y-136826820D01*
X164712987Y-136747533D01*
X164791641Y-136651048D01*
X164849960Y-136541073D01*
X164885703Y-136421833D01*
X164897497Y-136297911D01*
X164881815Y-131530565D01*
X165125901Y-131646825D01*
X165273110Y-131691476D01*
X165503000Y-131570155D01*
X165503000Y-130377000D01*
X165483000Y-130377000D01*
X165483000Y-130123000D01*
X165503000Y-130123000D01*
X165503000Y-128929845D01*
X165273110Y-128808524D01*
X165125901Y-128853175D01*
X164873403Y-128973442D01*
X164872497Y-128697911D01*
X164860299Y-128576118D01*
X164824164Y-128456996D01*
X164765483Y-128347213D01*
X164686513Y-128250987D01*
X164590287Y-128172017D01*
X164480504Y-128113336D01*
X164361382Y-128077201D01*
X164237500Y-128065000D01*
X151735000Y-128065000D01*
X151735000Y-112648061D01*
X152465000Y-112648061D01*
X152465000Y-112851939D01*
X152504774Y-113051898D01*
X152582795Y-113240256D01*
X152664476Y-113362500D01*
X152582795Y-113484744D01*
X152504774Y-113673102D01*
X152465000Y-113873061D01*
X152465000Y-114076939D01*
X152504774Y-114276898D01*
X152582795Y-114465256D01*
X152696063Y-114634774D01*
X152840226Y-114778937D01*
X153009744Y-114892205D01*
X153198102Y-114970226D01*
X153398061Y-115010000D01*
X153460199Y-115010000D01*
X167410001Y-128959803D01*
X167410001Y-128971821D01*
X167223368Y-129096525D01*
X167016525Y-129303368D01*
X166894805Y-129485534D01*
X166825178Y-129368645D01*
X166630269Y-129152412D01*
X166396920Y-128978359D01*
X166134099Y-128853175D01*
X165986890Y-128808524D01*
X165757000Y-128929845D01*
X165757000Y-130123000D01*
X165777000Y-130123000D01*
X165777000Y-130377000D01*
X165757000Y-130377000D01*
X165757000Y-131570155D01*
X165986890Y-131691476D01*
X166134099Y-131646825D01*
X166396920Y-131521641D01*
X166630269Y-131347588D01*
X166825178Y-131131355D01*
X166894805Y-131014466D01*
X167016525Y-131196632D01*
X167223368Y-131403475D01*
X167466589Y-131565990D01*
X167736842Y-131677932D01*
X168023740Y-131735000D01*
X168316260Y-131735000D01*
X168603158Y-131677932D01*
X168873411Y-131565990D01*
X169116632Y-131403475D01*
X169323475Y-131196632D01*
X169440000Y-131022240D01*
X169556525Y-131196632D01*
X169763368Y-131403475D01*
X170006589Y-131565990D01*
X170276842Y-131677932D01*
X170563740Y-131735000D01*
X170856260Y-131735000D01*
X171143158Y-131677932D01*
X171413411Y-131565990D01*
X171656632Y-131403475D01*
X171788487Y-131271620D01*
X171810498Y-131344180D01*
X171869463Y-131454494D01*
X171948815Y-131551185D01*
X172045506Y-131630537D01*
X172155820Y-131689502D01*
X172275518Y-131725812D01*
X172400000Y-131738072D01*
X174100000Y-131738072D01*
X174224482Y-131725812D01*
X174344180Y-131689502D01*
X174454494Y-131630537D01*
X174551185Y-131551185D01*
X174630537Y-131454494D01*
X174689502Y-131344180D01*
X174725812Y-131224482D01*
X174738072Y-131100000D01*
X174738072Y-129400000D01*
X174725812Y-129275518D01*
X174689502Y-129155820D01*
X174630537Y-129045506D01*
X174551185Y-128948815D01*
X174454494Y-128869463D01*
X174344180Y-128810498D01*
X174224482Y-128774188D01*
X174100000Y-128761928D01*
X172400000Y-128761928D01*
X172275518Y-128774188D01*
X172155820Y-128810498D01*
X172045506Y-128869463D01*
X171948815Y-128948815D01*
X171869463Y-129045506D01*
X171810498Y-129155820D01*
X171788487Y-129228380D01*
X171656632Y-129096525D01*
X171413411Y-128934010D01*
X171143158Y-128822068D01*
X170856260Y-128765000D01*
X170589803Y-128765000D01*
X154535000Y-112710199D01*
X154535000Y-112648061D01*
X154495226Y-112448102D01*
X154417205Y-112259744D01*
X154303937Y-112090226D01*
X154159774Y-111946063D01*
X153990256Y-111832795D01*
X153801898Y-111754774D01*
X153601939Y-111715000D01*
X153398061Y-111715000D01*
X153198102Y-111754774D01*
X153009744Y-111832795D01*
X152840226Y-111946063D01*
X152696063Y-112090226D01*
X152582795Y-112259744D01*
X152504774Y-112448102D01*
X152465000Y-112648061D01*
X151735000Y-112648061D01*
X151735000Y-108398057D01*
X156465000Y-108398057D01*
X156465000Y-108601935D01*
X156504774Y-108801894D01*
X156582795Y-108990252D01*
X156696063Y-109159770D01*
X156740001Y-109203708D01*
X156740000Y-110462677D01*
X156736324Y-110500000D01*
X156740000Y-110537322D01*
X156740000Y-110537332D01*
X156750997Y-110648985D01*
X156781639Y-110750000D01*
X156794454Y-110792246D01*
X156865026Y-110924276D01*
X156904180Y-110971985D01*
X156959999Y-111040001D01*
X156989003Y-111063804D01*
X160477653Y-114552455D01*
X160477653Y-114614592D01*
X160517427Y-114814551D01*
X160595448Y-115002909D01*
X160708716Y-115172427D01*
X160852879Y-115316590D01*
X161022397Y-115429858D01*
X161210755Y-115507879D01*
X161410714Y-115547653D01*
X161614592Y-115547653D01*
X161814551Y-115507879D01*
X162002909Y-115429858D01*
X162172427Y-115316590D01*
X162316590Y-115172427D01*
X162429858Y-115002909D01*
X162507879Y-114814551D01*
X162547653Y-114614592D01*
X162547653Y-114410714D01*
X162507879Y-114210755D01*
X162429858Y-114022397D01*
X162387900Y-113959602D01*
X162490256Y-113917205D01*
X162659774Y-113803937D01*
X162803937Y-113659774D01*
X162917205Y-113490256D01*
X162995226Y-113301898D01*
X163026015Y-113147108D01*
X163873664Y-112299460D01*
X163902662Y-112275662D01*
X163997635Y-112159937D01*
X164068207Y-112027908D01*
X164111664Y-111884647D01*
X164122661Y-111772994D01*
X164122661Y-111772985D01*
X164126337Y-111735662D01*
X164122661Y-111698339D01*
X164122661Y-109536890D01*
X170058524Y-109536890D01*
X170103175Y-109684099D01*
X170228359Y-109946920D01*
X170402412Y-110180269D01*
X170618645Y-110375178D01*
X170868748Y-110524157D01*
X171143109Y-110621481D01*
X171373000Y-110500814D01*
X171373000Y-109307000D01*
X171627000Y-109307000D01*
X171627000Y-110500814D01*
X171856891Y-110621481D01*
X172131252Y-110524157D01*
X172381355Y-110375178D01*
X172597588Y-110180269D01*
X172771641Y-109946920D01*
X172896825Y-109684099D01*
X172941476Y-109536890D01*
X172820155Y-109307000D01*
X171627000Y-109307000D01*
X171373000Y-109307000D01*
X170179845Y-109307000D01*
X170058524Y-109536890D01*
X164122661Y-109536890D01*
X164122661Y-107375072D01*
X164126337Y-107337747D01*
X164122661Y-107300422D01*
X164122661Y-107300414D01*
X164111664Y-107188761D01*
X164068207Y-107045500D01*
X163997635Y-106913471D01*
X163902662Y-106797746D01*
X163873665Y-106773949D01*
X163771767Y-106672051D01*
X163771767Y-106609914D01*
X163731993Y-106409955D01*
X163653972Y-106221597D01*
X163540704Y-106052079D01*
X163396541Y-105907916D01*
X163227023Y-105794648D01*
X163038665Y-105716627D01*
X162838706Y-105676853D01*
X162634828Y-105676853D01*
X162434869Y-105716627D01*
X162246511Y-105794648D01*
X162076993Y-105907916D01*
X161932830Y-106052079D01*
X161819562Y-106221597D01*
X161741541Y-106409955D01*
X161701767Y-106609914D01*
X161701767Y-106813792D01*
X161741541Y-107013751D01*
X161819562Y-107202109D01*
X161932830Y-107371627D01*
X162076993Y-107515790D01*
X162246511Y-107629058D01*
X162434869Y-107707079D01*
X162602661Y-107740455D01*
X162602662Y-110277860D01*
X162563803Y-110239002D01*
X162540001Y-110209999D01*
X162424276Y-110115026D01*
X162292247Y-110044454D01*
X162148986Y-110000997D01*
X162037333Y-109990000D01*
X162037322Y-109990000D01*
X162000000Y-109986324D01*
X161962678Y-109990000D01*
X160703711Y-109990000D01*
X160659774Y-109946063D01*
X160490256Y-109832795D01*
X160301898Y-109754774D01*
X160101939Y-109715000D01*
X159898061Y-109715000D01*
X159698102Y-109754774D01*
X159509744Y-109832795D01*
X159340226Y-109946063D01*
X159196063Y-110090226D01*
X159082795Y-110259744D01*
X159004774Y-110448102D01*
X158965000Y-110648061D01*
X158965000Y-110851939D01*
X158974500Y-110899699D01*
X158260000Y-110185199D01*
X158260000Y-109203707D01*
X158303937Y-109159770D01*
X158417205Y-108990252D01*
X158495226Y-108801894D01*
X158535000Y-108601935D01*
X158535000Y-108398057D01*
X158495226Y-108198098D01*
X158417205Y-108009740D01*
X158303937Y-107840222D01*
X158159774Y-107696059D01*
X157990256Y-107582791D01*
X157801898Y-107504770D01*
X157601939Y-107464996D01*
X157398061Y-107464996D01*
X157198102Y-107504770D01*
X157009744Y-107582791D01*
X156840226Y-107696059D01*
X156696063Y-107840222D01*
X156582795Y-108009740D01*
X156504774Y-108198098D01*
X156465000Y-108398057D01*
X151735000Y-108398057D01*
X151735000Y-104100000D01*
X151722799Y-103976118D01*
X151686664Y-103856996D01*
X151627983Y-103747213D01*
X151549013Y-103650987D01*
X151452787Y-103572017D01*
X151343004Y-103513336D01*
X151223882Y-103477201D01*
X151100000Y-103465000D01*
X141750000Y-103465000D01*
X141685229Y-103471379D01*
X141679951Y-103148061D01*
X164965000Y-103148061D01*
X164965000Y-103351939D01*
X165004774Y-103551898D01*
X165082795Y-103740256D01*
X165196063Y-103909774D01*
X165340226Y-104053937D01*
X165509744Y-104167205D01*
X165698102Y-104245226D01*
X165740000Y-104253560D01*
X165740001Y-105121278D01*
X165696063Y-105165216D01*
X165582795Y-105334734D01*
X165504774Y-105523092D01*
X165465000Y-105723051D01*
X165465000Y-105926929D01*
X165504774Y-106126888D01*
X165582795Y-106315246D01*
X165696063Y-106484764D01*
X165840226Y-106628927D01*
X166009744Y-106742195D01*
X166198102Y-106820216D01*
X166398061Y-106859990D01*
X166601939Y-106859990D01*
X166801589Y-106820277D01*
X166838803Y-106857491D01*
X167008321Y-106970759D01*
X167196679Y-107048780D01*
X167396638Y-107088554D01*
X167600516Y-107088554D01*
X167800475Y-107048780D01*
X167988833Y-106970759D01*
X168158351Y-106857491D01*
X168302514Y-106713328D01*
X168415782Y-106543810D01*
X168493803Y-106355452D01*
X168533577Y-106155493D01*
X168533577Y-105951615D01*
X168493803Y-105751656D01*
X168415782Y-105563298D01*
X168302514Y-105393780D01*
X168260000Y-105351266D01*
X168260000Y-103953711D01*
X168303937Y-103909774D01*
X168417205Y-103740256D01*
X168495226Y-103551898D01*
X168535000Y-103351939D01*
X168535000Y-103250000D01*
X170011928Y-103250000D01*
X170011928Y-104950000D01*
X170024188Y-105074482D01*
X170060498Y-105194180D01*
X170119463Y-105304494D01*
X170198815Y-105401185D01*
X170295506Y-105480537D01*
X170405820Y-105539502D01*
X170478380Y-105561513D01*
X170346525Y-105693368D01*
X170184010Y-105936589D01*
X170072068Y-106206842D01*
X170015000Y-106493740D01*
X170015000Y-106786260D01*
X170072068Y-107073158D01*
X170184010Y-107343411D01*
X170346525Y-107586632D01*
X170553368Y-107793475D01*
X170735534Y-107915195D01*
X170618645Y-107984822D01*
X170402412Y-108179731D01*
X170228359Y-108413080D01*
X170103175Y-108675901D01*
X170058524Y-108823110D01*
X170179845Y-109053000D01*
X171373000Y-109053000D01*
X171373000Y-109033000D01*
X171627000Y-109033000D01*
X171627000Y-109053000D01*
X172820155Y-109053000D01*
X172941476Y-108823110D01*
X172896825Y-108675901D01*
X172771641Y-108413080D01*
X172597588Y-108179731D01*
X172381355Y-107984822D01*
X172264466Y-107915195D01*
X172446632Y-107793475D01*
X172653475Y-107586632D01*
X172815990Y-107343411D01*
X172927932Y-107073158D01*
X172985000Y-106786260D01*
X172985000Y-106493740D01*
X172927932Y-106206842D01*
X172815990Y-105936589D01*
X172653475Y-105693368D01*
X172521620Y-105561513D01*
X172594180Y-105539502D01*
X172704494Y-105480537D01*
X172801185Y-105401185D01*
X172880537Y-105304494D01*
X172939502Y-105194180D01*
X172975812Y-105074482D01*
X172988072Y-104950000D01*
X172988072Y-103250000D01*
X172975812Y-103125518D01*
X172939502Y-103005820D01*
X172880537Y-102895506D01*
X172801185Y-102798815D01*
X172704494Y-102719463D01*
X172594180Y-102660498D01*
X172474482Y-102624188D01*
X172350000Y-102611928D01*
X170650000Y-102611928D01*
X170525518Y-102624188D01*
X170405820Y-102660498D01*
X170295506Y-102719463D01*
X170198815Y-102798815D01*
X170119463Y-102895506D01*
X170060498Y-103005820D01*
X170024188Y-103125518D01*
X170011928Y-103250000D01*
X168535000Y-103250000D01*
X168535000Y-103148061D01*
X168495226Y-102948102D01*
X168417205Y-102759744D01*
X168303937Y-102590226D01*
X168159774Y-102446063D01*
X167990256Y-102332795D01*
X167801898Y-102254774D01*
X167601939Y-102215000D01*
X167398061Y-102215000D01*
X167198102Y-102254774D01*
X167009744Y-102332795D01*
X166840226Y-102446063D01*
X166750000Y-102536289D01*
X166659774Y-102446063D01*
X166490256Y-102332795D01*
X166301898Y-102254774D01*
X166101939Y-102215000D01*
X165898061Y-102215000D01*
X165698102Y-102254774D01*
X165509744Y-102332795D01*
X165340226Y-102446063D01*
X165196063Y-102590226D01*
X165082795Y-102759744D01*
X165004774Y-102948102D01*
X164965000Y-103148061D01*
X141679951Y-103148061D01*
X141645740Y-101052684D01*
X142832844Y-101084768D01*
X142982460Y-101071031D01*
X143101072Y-101033256D01*
X143210035Y-100973067D01*
X143305163Y-100892777D01*
X143382799Y-100795472D01*
X143439959Y-100684890D01*
X143474448Y-100565281D01*
X143484940Y-100441242D01*
X143437895Y-97030448D01*
X143465537Y-97048918D01*
X143763088Y-97172168D01*
X144078967Y-97235000D01*
X144401033Y-97235000D01*
X144716912Y-97172168D01*
X145014463Y-97048918D01*
X145282252Y-96869987D01*
X145509987Y-96642252D01*
X145510000Y-96642233D01*
X145510013Y-96642252D01*
X145737748Y-96869987D01*
X146005537Y-97048918D01*
X146303088Y-97172168D01*
X146618967Y-97235000D01*
X146941033Y-97235000D01*
X147256912Y-97172168D01*
X147554463Y-97048918D01*
X147822252Y-96869987D01*
X148049987Y-96642252D01*
X148050000Y-96642233D01*
X148050013Y-96642252D01*
X148277748Y-96869987D01*
X148545537Y-97048918D01*
X148843088Y-97172168D01*
X149158967Y-97235000D01*
X149481033Y-97235000D01*
X149796912Y-97172168D01*
X150094463Y-97048918D01*
X150362252Y-96869987D01*
X150589987Y-96642252D01*
X150590000Y-96642233D01*
X150590013Y-96642252D01*
X150817748Y-96869987D01*
X151085537Y-97048918D01*
X151383088Y-97172168D01*
X151698967Y-97235000D01*
X152021033Y-97235000D01*
X152336912Y-97172168D01*
X152634463Y-97048918D01*
X152902252Y-96869987D01*
X153129987Y-96642252D01*
X153130000Y-96642233D01*
X153130013Y-96642252D01*
X153357748Y-96869987D01*
X153625537Y-97048918D01*
X153923088Y-97172168D01*
X154238967Y-97235000D01*
X154561033Y-97235000D01*
X154876912Y-97172168D01*
X155174463Y-97048918D01*
X155442252Y-96869987D01*
X155669987Y-96642252D01*
X155670000Y-96642233D01*
X155670013Y-96642252D01*
X155897748Y-96869987D01*
X156165537Y-97048918D01*
X156463088Y-97172168D01*
X156778967Y-97235000D01*
X157101033Y-97235000D01*
X157416912Y-97172168D01*
X157714463Y-97048918D01*
X157982252Y-96869987D01*
X158209987Y-96642252D01*
X158210000Y-96642233D01*
X158210013Y-96642252D01*
X158437748Y-96869987D01*
X158705537Y-97048918D01*
X159003088Y-97172168D01*
X159318967Y-97235000D01*
X159641033Y-97235000D01*
X159956912Y-97172168D01*
X160254463Y-97048918D01*
X160522252Y-96869987D01*
X160749987Y-96642252D01*
X160750000Y-96642233D01*
X160750013Y-96642252D01*
X160977748Y-96869987D01*
X161245537Y-97048918D01*
X161543088Y-97172168D01*
X161858967Y-97235000D01*
X162181033Y-97235000D01*
X162496912Y-97172168D01*
X162794463Y-97048918D01*
X163062252Y-96869987D01*
X163289987Y-96642252D01*
X163290000Y-96642233D01*
X163290013Y-96642252D01*
X163517748Y-96869987D01*
X163785537Y-97048918D01*
X164083088Y-97172168D01*
X164398967Y-97235000D01*
X164721033Y-97235000D01*
X165036912Y-97172168D01*
X165334463Y-97048918D01*
X165602252Y-96869987D01*
X165829987Y-96642252D01*
X165830000Y-96642233D01*
X165830013Y-96642252D01*
X166057748Y-96869987D01*
X166325537Y-97048918D01*
X166623088Y-97172168D01*
X166938967Y-97235000D01*
X167261033Y-97235000D01*
X167576912Y-97172168D01*
X167874463Y-97048918D01*
X168142252Y-96869987D01*
X168369987Y-96642252D01*
X168370000Y-96642233D01*
X168370013Y-96642252D01*
X168597748Y-96869987D01*
X168865537Y-97048918D01*
X169163088Y-97172168D01*
X169478967Y-97235000D01*
X169801033Y-97235000D01*
X170116912Y-97172168D01*
X170414463Y-97048918D01*
X170682252Y-96869987D01*
X170909987Y-96642252D01*
X170910000Y-96642233D01*
X170910013Y-96642252D01*
X171137748Y-96869987D01*
X171405537Y-97048918D01*
X171703088Y-97172168D01*
X172018967Y-97235000D01*
X172341033Y-97235000D01*
X172656912Y-97172168D01*
X172954463Y-97048918D01*
X173222252Y-96869987D01*
X173449987Y-96642252D01*
X173450000Y-96642233D01*
X173450013Y-96642252D01*
X173677748Y-96869987D01*
X173945537Y-97048918D01*
X174243088Y-97172168D01*
X174558967Y-97235000D01*
X174881033Y-97235000D01*
X175196912Y-97172168D01*
X175494463Y-97048918D01*
X175762252Y-96869987D01*
X175896826Y-96735413D01*
X176304192Y-96735413D01*
X176399956Y-96999814D01*
X176689571Y-97140704D01*
X177001108Y-97222384D01*
X177322595Y-97241718D01*
X177641675Y-97197961D01*
X177946088Y-97092795D01*
X178120044Y-96999814D01*
X178215808Y-96735413D01*
X177260000Y-95779605D01*
X176304192Y-96735413D01*
X175896826Y-96735413D01*
X175989987Y-96642252D01*
X176062720Y-96533400D01*
X176124587Y-96555808D01*
X177080395Y-95600000D01*
X177439605Y-95600000D01*
X178395413Y-96555808D01*
X178659814Y-96460044D01*
X178729959Y-96315852D01*
X180875000Y-96315852D01*
X180875000Y-96884148D01*
X180985869Y-97441523D01*
X181203346Y-97966560D01*
X181519074Y-98439080D01*
X181920920Y-98840926D01*
X182393440Y-99156654D01*
X182918477Y-99374131D01*
X183475852Y-99485000D01*
X184044148Y-99485000D01*
X184601523Y-99374131D01*
X185126560Y-99156654D01*
X185599080Y-98840926D01*
X186000926Y-98439080D01*
X186316654Y-97966560D01*
X186534131Y-97441523D01*
X186645000Y-96884148D01*
X186645000Y-96315852D01*
X186534131Y-95758477D01*
X186316654Y-95233440D01*
X186000926Y-94760920D01*
X185599080Y-94359074D01*
X185126560Y-94043346D01*
X184601523Y-93825869D01*
X184044148Y-93715000D01*
X183475852Y-93715000D01*
X182918477Y-93825869D01*
X182393440Y-94043346D01*
X181920920Y-94359074D01*
X181519074Y-94760920D01*
X181203346Y-95233440D01*
X180985869Y-95758477D01*
X180875000Y-96315852D01*
X178729959Y-96315852D01*
X178800704Y-96170429D01*
X178882384Y-95858892D01*
X178901718Y-95537405D01*
X178857961Y-95218325D01*
X178752795Y-94913912D01*
X178659814Y-94739956D01*
X178395413Y-94644192D01*
X177439605Y-95600000D01*
X177080395Y-95600000D01*
X176124587Y-94644192D01*
X176062720Y-94666600D01*
X175989987Y-94557748D01*
X175896826Y-94464587D01*
X176304192Y-94464587D01*
X177260000Y-95420395D01*
X178215808Y-94464587D01*
X178120044Y-94200186D01*
X177830429Y-94059296D01*
X177518892Y-93977616D01*
X177197405Y-93958282D01*
X176878325Y-94002039D01*
X176573912Y-94107205D01*
X176399956Y-94200186D01*
X176304192Y-94464587D01*
X175896826Y-94464587D01*
X175762252Y-94330013D01*
X175494463Y-94151082D01*
X175196912Y-94027832D01*
X174881033Y-93965000D01*
X174558967Y-93965000D01*
X174243088Y-94027832D01*
X173945537Y-94151082D01*
X173677748Y-94330013D01*
X173450013Y-94557748D01*
X173450000Y-94557767D01*
X173449987Y-94557748D01*
X173222252Y-94330013D01*
X172954463Y-94151082D01*
X172656912Y-94027832D01*
X172341033Y-93965000D01*
X172018967Y-93965000D01*
X171703088Y-94027832D01*
X171405537Y-94151082D01*
X171137748Y-94330013D01*
X170910013Y-94557748D01*
X170910000Y-94557767D01*
X170909987Y-94557748D01*
X170682252Y-94330013D01*
X170414463Y-94151082D01*
X170116912Y-94027832D01*
X169801033Y-93965000D01*
X169478967Y-93965000D01*
X169163088Y-94027832D01*
X168865537Y-94151082D01*
X168597748Y-94330013D01*
X168370013Y-94557748D01*
X168370000Y-94557767D01*
X168369987Y-94557748D01*
X168142252Y-94330013D01*
X167874463Y-94151082D01*
X167576912Y-94027832D01*
X167261033Y-93965000D01*
X166938967Y-93965000D01*
X166623088Y-94027832D01*
X166325537Y-94151082D01*
X166057748Y-94330013D01*
X165830013Y-94557748D01*
X165830000Y-94557767D01*
X165829987Y-94557748D01*
X165602252Y-94330013D01*
X165334463Y-94151082D01*
X165036912Y-94027832D01*
X164721033Y-93965000D01*
X164398967Y-93965000D01*
X164083088Y-94027832D01*
X163785537Y-94151082D01*
X163517748Y-94330013D01*
X163290013Y-94557748D01*
X163290000Y-94557767D01*
X163289987Y-94557748D01*
X163062252Y-94330013D01*
X162794463Y-94151082D01*
X162496912Y-94027832D01*
X162181033Y-93965000D01*
X161858967Y-93965000D01*
X161543088Y-94027832D01*
X161245537Y-94151082D01*
X160977748Y-94330013D01*
X160750013Y-94557748D01*
X160750000Y-94557767D01*
X160749987Y-94557748D01*
X160522252Y-94330013D01*
X160254463Y-94151082D01*
X159956912Y-94027832D01*
X159641033Y-93965000D01*
X159318967Y-93965000D01*
X159003088Y-94027832D01*
X158705537Y-94151082D01*
X158437748Y-94330013D01*
X158210013Y-94557748D01*
X158210000Y-94557767D01*
X158209987Y-94557748D01*
X157982252Y-94330013D01*
X157714463Y-94151082D01*
X157416912Y-94027832D01*
X157101033Y-93965000D01*
X156778967Y-93965000D01*
X156463088Y-94027832D01*
X156165537Y-94151082D01*
X155897748Y-94330013D01*
X155670013Y-94557748D01*
X155670000Y-94557767D01*
X155669987Y-94557748D01*
X155442252Y-94330013D01*
X155174463Y-94151082D01*
X154876912Y-94027832D01*
X154561033Y-93965000D01*
X154238967Y-93965000D01*
X153923088Y-94027832D01*
X153625537Y-94151082D01*
X153357748Y-94330013D01*
X153130013Y-94557748D01*
X153130000Y-94557767D01*
X153129987Y-94557748D01*
X152902252Y-94330013D01*
X152634463Y-94151082D01*
X152336912Y-94027832D01*
X152021033Y-93965000D01*
X151698967Y-93965000D01*
X151383088Y-94027832D01*
X151085537Y-94151082D01*
X150817748Y-94330013D01*
X150590013Y-94557748D01*
X150590000Y-94557767D01*
X150589987Y-94557748D01*
X150362252Y-94330013D01*
X150094463Y-94151082D01*
X149796912Y-94027832D01*
X149481033Y-93965000D01*
X149158967Y-93965000D01*
X148843088Y-94027832D01*
X148545537Y-94151082D01*
X148277748Y-94330013D01*
X148050013Y-94557748D01*
X148050000Y-94557767D01*
X148049987Y-94557748D01*
X147822252Y-94330013D01*
X147554463Y-94151082D01*
X147256912Y-94027832D01*
X146941033Y-93965000D01*
X146618967Y-93965000D01*
X146303088Y-94027832D01*
X146005537Y-94151082D01*
X145737748Y-94330013D01*
X145510013Y-94557748D01*
X145510000Y-94557767D01*
X145509987Y-94557748D01*
X145282252Y-94330013D01*
X145014463Y-94151082D01*
X144716912Y-94027832D01*
X144401033Y-93965000D01*
X144078967Y-93965000D01*
X143763088Y-94027832D01*
X143465537Y-94151082D01*
X143325746Y-94244487D01*
X143249013Y-94150987D01*
X143152787Y-94072017D01*
X143043004Y-94013336D01*
X142923882Y-93977201D01*
X142800000Y-93965000D01*
X140600000Y-93965000D01*
X140476118Y-93977201D01*
X140356996Y-94013336D01*
X140247213Y-94072017D01*
X140150987Y-94150987D01*
X140072017Y-94247213D01*
X140051190Y-94286178D01*
X140020044Y-94200186D01*
X139730429Y-94059296D01*
X139418892Y-93977616D01*
X139097405Y-93958282D01*
X138778325Y-94002039D01*
X138473912Y-94107205D01*
X138299956Y-94200186D01*
X138204192Y-94464587D01*
X139160000Y-95420395D01*
X139174143Y-95406253D01*
X139353748Y-95585858D01*
X139339605Y-95600000D01*
X139353748Y-95614143D01*
X139174143Y-95793748D01*
X139160000Y-95779605D01*
X138204192Y-96735413D01*
X138299956Y-96999814D01*
X138589571Y-97140704D01*
X138901108Y-97222384D01*
X139222595Y-97241718D01*
X139541675Y-97197961D01*
X139846088Y-97092795D01*
X139965000Y-97029235D01*
X139965000Y-98165000D01*
X139600000Y-98165000D01*
X139471996Y-98178035D01*
X139353116Y-98214959D01*
X139243724Y-98274365D01*
X139148024Y-98353971D01*
X139069692Y-98450717D01*
X139011740Y-98560886D01*
X138976395Y-98680245D01*
X138965014Y-98804205D01*
X139010781Y-105715000D01*
X138450000Y-105715000D01*
X138340631Y-105724489D01*
X138220701Y-105757845D01*
X138109584Y-105813957D01*
X138011548Y-105890669D01*
X137930362Y-105985033D01*
X137869145Y-106093422D01*
X137830250Y-106211671D01*
X137815172Y-106335237D01*
X137679596Y-112165000D01*
X133635000Y-112165000D01*
X133635000Y-110000000D01*
X133622799Y-109876118D01*
X133586664Y-109756996D01*
X133527983Y-109647213D01*
X133449013Y-109550987D01*
X133352787Y-109472017D01*
X133243004Y-109413336D01*
X133123882Y-109377201D01*
X133000000Y-109365000D01*
X132243601Y-109365000D01*
X132135687Y-109276437D01*
X132003658Y-109205865D01*
X131860397Y-109162408D01*
X131748744Y-109151411D01*
X131748733Y-109151411D01*
X131711411Y-109147735D01*
X131674089Y-109151411D01*
X126940637Y-109151411D01*
X126903314Y-109147735D01*
X126865991Y-109151411D01*
X126865982Y-109151411D01*
X126754329Y-109162408D01*
X126611068Y-109205865D01*
X126560000Y-109233162D01*
X126560000Y-107953711D01*
X126603937Y-107909774D01*
X126717205Y-107740256D01*
X126795226Y-107551898D01*
X126835000Y-107351939D01*
X126835000Y-107148061D01*
X126795226Y-106948102D01*
X126717205Y-106759744D01*
X126603937Y-106590226D01*
X126459774Y-106446063D01*
X126290256Y-106332795D01*
X126101898Y-106254774D01*
X125901939Y-106215000D01*
X125698061Y-106215000D01*
X125498102Y-106254774D01*
X125309744Y-106332795D01*
X125140226Y-106446063D01*
X124996063Y-106590226D01*
X124882795Y-106759744D01*
X124804774Y-106948102D01*
X124765000Y-107148061D01*
X124765000Y-107351939D01*
X124804774Y-107551898D01*
X124882795Y-107740256D01*
X124996063Y-107909774D01*
X125040000Y-107953711D01*
X125040001Y-110685193D01*
X124760199Y-110964996D01*
X124698061Y-110964996D01*
X124498102Y-111004770D01*
X124309744Y-111082791D01*
X124140226Y-111196059D01*
X123996063Y-111340222D01*
X123882795Y-111509740D01*
X123804774Y-111698098D01*
X123765000Y-111898057D01*
X123765000Y-112101935D01*
X123804774Y-112301894D01*
X123882795Y-112490252D01*
X123996063Y-112659770D01*
X124140226Y-112803933D01*
X124309744Y-112917201D01*
X124379220Y-112945979D01*
X124160199Y-113165000D01*
X124098061Y-113165000D01*
X123898102Y-113204774D01*
X123709744Y-113282795D01*
X123540226Y-113396063D01*
X123396063Y-113540226D01*
X123282795Y-113709744D01*
X123204774Y-113898102D01*
X123165000Y-114098061D01*
X123165000Y-114301939D01*
X123204774Y-114501898D01*
X123282795Y-114690256D01*
X123396063Y-114859774D01*
X123540226Y-115003937D01*
X123709744Y-115117205D01*
X123898102Y-115195226D01*
X124098061Y-115235000D01*
X124301939Y-115235000D01*
X124501898Y-115195226D01*
X124690256Y-115117205D01*
X124859774Y-115003937D01*
X125003937Y-114859774D01*
X125117205Y-114690256D01*
X125195226Y-114501898D01*
X125235000Y-114301939D01*
X125235000Y-114239801D01*
X125983627Y-113491174D01*
X125996063Y-113509786D01*
X126140226Y-113653949D01*
X126309744Y-113767217D01*
X126498102Y-113845238D01*
X126698061Y-113885012D01*
X126901939Y-113885012D01*
X127101898Y-113845238D01*
X127290256Y-113767217D01*
X127459774Y-113653949D01*
X127603937Y-113509786D01*
X127717205Y-113340268D01*
X127795226Y-113151910D01*
X127835000Y-112951951D01*
X127835000Y-112748073D01*
X127826986Y-112707785D01*
X127836538Y-112610807D01*
X127836538Y-112610799D01*
X127840214Y-112573474D01*
X127836538Y-112536149D01*
X127836538Y-112103711D01*
X127880475Y-112059774D01*
X127993743Y-111890256D01*
X128071764Y-111701898D01*
X128111538Y-111501939D01*
X128111538Y-111298061D01*
X128071764Y-111098102D01*
X127993743Y-110909744D01*
X127880475Y-110740226D01*
X127811660Y-110671411D01*
X130965000Y-110671411D01*
X130965000Y-114000000D01*
X130977201Y-114123882D01*
X131013336Y-114243004D01*
X131072017Y-114352787D01*
X131150987Y-114449013D01*
X131247213Y-114527983D01*
X131356996Y-114586664D01*
X131476118Y-114622799D01*
X131600000Y-114635000D01*
X132965000Y-114635000D01*
X132965000Y-123300000D01*
X132977201Y-123423882D01*
X133013336Y-123543004D01*
X133072017Y-123652787D01*
X133150987Y-123749013D01*
X133247213Y-123827983D01*
X133356996Y-123886664D01*
X133476118Y-123922799D01*
X133600000Y-123935000D01*
X134965000Y-123935000D01*
X134965000Y-131000000D01*
X134977201Y-131123882D01*
X135013336Y-131243004D01*
X135072017Y-131352787D01*
X135150987Y-131449013D01*
X135247213Y-131527983D01*
X135356996Y-131586664D01*
X135476118Y-131622799D01*
X135600000Y-131635000D01*
X144000000Y-131635000D01*
X144123882Y-131622799D01*
X144243004Y-131586664D01*
X144352787Y-131527983D01*
X144449013Y-131449013D01*
X144527983Y-131352787D01*
X144586664Y-131243004D01*
X144622799Y-131123882D01*
X144635000Y-131000000D01*
X144635000Y-106450000D01*
X144619388Y-106310058D01*
X144580185Y-106191910D01*
X144536546Y-106115112D01*
X148115000Y-106089552D01*
X148115000Y-131916500D01*
X128235000Y-131963497D01*
X128235000Y-125835000D01*
X129800000Y-125835000D01*
X129923882Y-125822799D01*
X130043004Y-125786664D01*
X130152787Y-125727983D01*
X130249013Y-125649013D01*
X130327983Y-125552787D01*
X130386664Y-125443004D01*
X130422799Y-125323882D01*
X130435000Y-125200000D01*
X130435000Y-116600000D01*
X130422799Y-116476118D01*
X130386664Y-116356996D01*
X130327983Y-116247213D01*
X130249013Y-116150987D01*
X130152787Y-116072017D01*
X130043004Y-116013336D01*
X129923882Y-115977201D01*
X129800000Y-115965000D01*
X128200000Y-115965000D01*
X128076118Y-115977201D01*
X127956996Y-116013336D01*
X127847213Y-116072017D01*
X127750987Y-116150987D01*
X127672017Y-116247213D01*
X127613336Y-116356996D01*
X127577201Y-116476118D01*
X127565000Y-116600000D01*
X127565000Y-120165000D01*
X123700000Y-120165000D01*
X123576118Y-120177201D01*
X123456996Y-120213336D01*
X123347213Y-120272017D01*
X123250987Y-120350987D01*
X123172017Y-120447213D01*
X123113336Y-120556996D01*
X123077201Y-120676118D01*
X123065000Y-120800000D01*
X113131583Y-120800000D01*
X113160922Y-120775922D01*
X113296509Y-120610710D01*
X113397259Y-120422220D01*
X113459300Y-120217697D01*
X113480249Y-120005000D01*
X113459300Y-119792303D01*
X113397259Y-119587780D01*
X113296509Y-119399290D01*
X113160922Y-119234078D01*
X112995710Y-119098491D01*
X112807220Y-118997741D01*
X112602697Y-118935700D01*
X112443294Y-118920000D01*
X111636706Y-118920000D01*
X111477303Y-118935700D01*
X111272780Y-118997741D01*
X111084290Y-119098491D01*
X110919078Y-119234078D01*
X110783491Y-119399290D01*
X110682741Y-119587780D01*
X110660000Y-119662747D01*
X110660000Y-113747253D01*
X110682741Y-113822220D01*
X110783491Y-114010710D01*
X110919078Y-114175922D01*
X111084290Y-114311509D01*
X111272780Y-114412259D01*
X111477303Y-114474300D01*
X111636706Y-114490000D01*
X112443294Y-114490000D01*
X112602697Y-114474300D01*
X112807220Y-114412259D01*
X112995710Y-114311509D01*
X113160922Y-114175922D01*
X113296509Y-114010710D01*
X113397259Y-113822220D01*
X113459300Y-113617697D01*
X113480249Y-113405000D01*
X113459300Y-113192303D01*
X113397259Y-112987780D01*
X113296509Y-112799290D01*
X113160922Y-112634078D01*
X112995710Y-112498491D01*
X112807220Y-112397741D01*
X112602697Y-112335700D01*
X112443294Y-112320000D01*
X111636706Y-112320000D01*
X111477303Y-112335700D01*
X111272780Y-112397741D01*
X111084290Y-112498491D01*
X110919078Y-112634078D01*
X110783491Y-112799290D01*
X110682741Y-112987780D01*
X110660000Y-113062747D01*
X110660000Y-92685341D01*
X113007634Y-92688501D01*
G37*
X113007634Y-92688501D02*
X114034132Y-93715000D01*
X113475852Y-93715000D01*
X112918477Y-93825869D01*
X112393440Y-94043346D01*
X111920920Y-94359074D01*
X111519074Y-94760920D01*
X111203346Y-95233440D01*
X110985869Y-95758477D01*
X110875000Y-96315852D01*
X110875000Y-96884148D01*
X110985869Y-97441523D01*
X111203346Y-97966560D01*
X111519074Y-98439080D01*
X111920920Y-98840926D01*
X112393440Y-99156654D01*
X112918477Y-99374131D01*
X113475852Y-99485000D01*
X114044148Y-99485000D01*
X114601523Y-99374131D01*
X115126560Y-99156654D01*
X115599080Y-98840926D01*
X116000926Y-98439080D01*
X116316654Y-97966560D01*
X116333092Y-97926876D01*
X116498102Y-97995226D01*
X116698061Y-98035000D01*
X116901939Y-98035000D01*
X117101898Y-97995226D01*
X117290256Y-97917205D01*
X117459774Y-97803937D01*
X117603937Y-97659774D01*
X117661884Y-97573049D01*
X120940000Y-97573049D01*
X120940000Y-97776927D01*
X120979774Y-97976886D01*
X121057795Y-98165244D01*
X121165001Y-98325689D01*
X121165000Y-100686715D01*
X121082795Y-100809744D01*
X121004774Y-100998102D01*
X120965000Y-101198061D01*
X120965000Y-101401939D01*
X121004774Y-101601898D01*
X121082795Y-101790256D01*
X121196063Y-101959774D01*
X121340226Y-102103937D01*
X121509744Y-102217205D01*
X121698102Y-102295226D01*
X121898061Y-102335000D01*
X122101939Y-102335000D01*
X122301898Y-102295226D01*
X122490256Y-102217205D01*
X122659774Y-102103937D01*
X122803937Y-101959774D01*
X122917205Y-101790256D01*
X122995226Y-101601898D01*
X123035000Y-101401939D01*
X123035000Y-101198061D01*
X122995226Y-100998102D01*
X122917205Y-100809744D01*
X122835000Y-100686715D01*
X122835000Y-98250858D01*
X122892205Y-98165244D01*
X122970226Y-97976886D01*
X123010000Y-97776927D01*
X123010000Y-97573049D01*
X122970226Y-97373090D01*
X122892205Y-97184732D01*
X122778937Y-97015214D01*
X122634774Y-96871051D01*
X122465256Y-96757783D01*
X122276898Y-96679762D01*
X122076939Y-96639988D01*
X121873061Y-96639988D01*
X121673102Y-96679762D01*
X121484744Y-96757783D01*
X121315226Y-96871051D01*
X121171063Y-97015214D01*
X121057795Y-97184732D01*
X120979774Y-97373090D01*
X120940000Y-97573049D01*
X117661884Y-97573049D01*
X117717205Y-97490256D01*
X117795226Y-97301898D01*
X117835000Y-97101939D01*
X117835000Y-96898061D01*
X117795226Y-96698102D01*
X117717205Y-96509744D01*
X117635000Y-96386715D01*
X117635000Y-95662595D01*
X137518282Y-95662595D01*
X137562039Y-95981675D01*
X137667205Y-96286088D01*
X137760186Y-96460044D01*
X138024587Y-96555808D01*
X138980395Y-95600000D01*
X138024587Y-94644192D01*
X137760186Y-94739956D01*
X137619296Y-95029571D01*
X137537616Y-95341108D01*
X137518282Y-95662595D01*
X117635000Y-95662595D01*
X117635000Y-95341018D01*
X117639040Y-95299999D01*
X117622918Y-95136311D01*
X117575172Y-94978913D01*
X117497636Y-94833854D01*
X117490810Y-94825537D01*
X117393291Y-94706709D01*
X117361428Y-94680560D01*
X115372552Y-92691684D01*
X186840000Y-92787880D01*
X186840001Y-139340000D01*
X184683923Y-139340000D01*
X185126560Y-139156654D01*
X185599080Y-138840926D01*
X186000926Y-138439080D01*
X186316654Y-137966560D01*
X186534131Y-137441523D01*
X186645000Y-136884148D01*
X186645000Y-136315852D01*
X186534131Y-135758477D01*
X186316654Y-135233440D01*
X186000926Y-134760920D01*
X185599080Y-134359074D01*
X185126560Y-134043346D01*
X184601523Y-133825869D01*
X184044148Y-133715000D01*
X183475852Y-133715000D01*
X182918477Y-133825869D01*
X182393440Y-134043346D01*
X181920920Y-134359074D01*
X181519074Y-134760920D01*
X181203346Y-135233440D01*
X180985869Y-135758477D01*
X180875000Y-136315852D01*
X180875000Y-136884148D01*
X180985869Y-137441523D01*
X181203346Y-137966560D01*
X181519074Y-138439080D01*
X181920920Y-138840926D01*
X182393440Y-139156654D01*
X182836077Y-139340000D01*
X114683923Y-139340000D01*
X115126560Y-139156654D01*
X115599080Y-138840926D01*
X116000926Y-138439080D01*
X116316654Y-137966560D01*
X116534131Y-137441523D01*
X116645000Y-136884148D01*
X116645000Y-136315852D01*
X116534131Y-135758477D01*
X116316654Y-135233440D01*
X116000926Y-134760920D01*
X115599080Y-134359074D01*
X115126560Y-134043346D01*
X114601523Y-133825869D01*
X114044148Y-133715000D01*
X113475852Y-133715000D01*
X112918477Y-133825869D01*
X112393440Y-134043346D01*
X111920920Y-134359074D01*
X111519074Y-134760920D01*
X111203346Y-135233440D01*
X110985869Y-135758477D01*
X110875000Y-136315852D01*
X110875000Y-136884148D01*
X110985869Y-137441523D01*
X111203346Y-137966560D01*
X111519074Y-138439080D01*
X111920920Y-138840926D01*
X112393440Y-139156654D01*
X112836077Y-139340000D01*
X110660000Y-139340000D01*
X110660000Y-128105001D01*
X112551928Y-128105001D01*
X112551928Y-130304999D01*
X112568992Y-130478253D01*
X112619529Y-130644850D01*
X112701595Y-130798386D01*
X112812039Y-130932961D01*
X112946614Y-131043405D01*
X113100150Y-131125471D01*
X113266747Y-131176008D01*
X113440001Y-131193072D01*
X115639999Y-131193072D01*
X115813253Y-131176008D01*
X115979850Y-131125471D01*
X116133386Y-131043405D01*
X116267961Y-130932961D01*
X116378405Y-130798386D01*
X116460471Y-130644850D01*
X116511008Y-130478253D01*
X116528072Y-130304999D01*
X116528072Y-128105001D01*
X116511008Y-127931747D01*
X116460471Y-127765150D01*
X116378405Y-127611614D01*
X116267961Y-127477039D01*
X116133386Y-127366595D01*
X115979850Y-127284529D01*
X115813253Y-127233992D01*
X115639999Y-127216928D01*
X113440001Y-127216928D01*
X113266747Y-127233992D01*
X113100150Y-127284529D01*
X112946614Y-127366595D01*
X112812039Y-127477039D01*
X112701595Y-127611614D01*
X112619529Y-127765150D01*
X112568992Y-127931747D01*
X112551928Y-128105001D01*
X110660000Y-128105001D01*
X110660000Y-125589838D01*
X113334767Y-125589838D01*
X113472724Y-125890044D01*
X113821967Y-126065882D01*
X114198804Y-126170207D01*
X114588753Y-126199009D01*
X114976828Y-126151184D01*
X115348116Y-126028568D01*
X115607276Y-125890044D01*
X115745233Y-125589838D01*
X114540000Y-124384605D01*
X113334767Y-125589838D01*
X110660000Y-125589838D01*
X110660000Y-124253753D01*
X112545991Y-124253753D01*
X112593816Y-124641828D01*
X112716432Y-125013116D01*
X112854956Y-125272276D01*
X113155162Y-125410233D01*
X114360395Y-124205000D01*
X114719605Y-124205000D01*
X115924838Y-125410233D01*
X116225044Y-125272276D01*
X116400882Y-124923033D01*
X116505207Y-124546196D01*
X116534009Y-124156247D01*
X116486184Y-123768172D01*
X116363568Y-123396884D01*
X116225044Y-123137724D01*
X115924838Y-122999767D01*
X114719605Y-124205000D01*
X114360395Y-124205000D01*
X113155162Y-122999767D01*
X112854956Y-123137724D01*
X112679118Y-123486967D01*
X112574793Y-123863804D01*
X112545991Y-124253753D01*
X110660000Y-124253753D01*
X110660000Y-122820162D01*
X113334767Y-122820162D01*
X114540000Y-124025395D01*
X115745233Y-122820162D01*
X115607276Y-122519956D01*
X115258033Y-122344118D01*
X114881196Y-122239793D01*
X114491247Y-122210991D01*
X114103172Y-122258816D01*
X113731884Y-122381432D01*
X113472724Y-122519956D01*
X113334767Y-122820162D01*
X110660000Y-122820162D01*
X110660000Y-120347253D01*
X110682741Y-120422220D01*
X110783491Y-120610710D01*
X110919078Y-120775922D01*
X111084290Y-120911509D01*
X111272780Y-121012259D01*
X111477303Y-121074300D01*
X111636706Y-121090000D01*
X112443294Y-121090000D01*
X112602697Y-121074300D01*
X112807220Y-121012259D01*
X112995710Y-120911509D01*
X113131583Y-120800000D01*
X123065000Y-120800000D01*
X123065000Y-127100000D01*
X123065010Y-127103528D01*
X123115010Y-136103528D01*
X123126597Y-136220806D01*
X123162144Y-136340105D01*
X123220282Y-136450176D01*
X123298776Y-136546791D01*
X123394611Y-136626235D01*
X123504103Y-136685457D01*
X123623045Y-136722179D01*
X123746865Y-136734992D01*
X164259365Y-136934992D01*
X164388430Y-136922388D01*
X164507432Y-136885861D01*
X164617022Y-136826820D01*
X164712987Y-136747533D01*
X164791641Y-136651048D01*
X164849960Y-136541073D01*
X164885703Y-136421833D01*
X164897497Y-136297911D01*
X164881815Y-131530565D01*
X165125901Y-131646825D01*
X165273110Y-131691476D01*
X165503000Y-131570155D01*
X165503000Y-130377000D01*
X165483000Y-130377000D01*
X165483000Y-130123000D01*
X165503000Y-130123000D01*
X165503000Y-128929845D01*
X165273110Y-128808524D01*
X165125901Y-128853175D01*
X164873403Y-128973442D01*
X164872497Y-128697911D01*
X164860299Y-128576118D01*
X164824164Y-128456996D01*
X164765483Y-128347213D01*
X164686513Y-128250987D01*
X164590287Y-128172017D01*
X164480504Y-128113336D01*
X164361382Y-128077201D01*
X164237500Y-128065000D01*
X151735000Y-128065000D01*
X151735000Y-112648061D01*
X152465000Y-112648061D01*
X152465000Y-112851939D01*
X152504774Y-113051898D01*
X152582795Y-113240256D01*
X152664476Y-113362500D01*
X152582795Y-113484744D01*
X152504774Y-113673102D01*
X152465000Y-113873061D01*
X152465000Y-114076939D01*
X152504774Y-114276898D01*
X152582795Y-114465256D01*
X152696063Y-114634774D01*
X152840226Y-114778937D01*
X153009744Y-114892205D01*
X153198102Y-114970226D01*
X153398061Y-115010000D01*
X153460199Y-115010000D01*
X167410001Y-128959803D01*
X167410001Y-128971821D01*
X167223368Y-129096525D01*
X167016525Y-129303368D01*
X166894805Y-129485534D01*
X166825178Y-129368645D01*
X166630269Y-129152412D01*
X166396920Y-128978359D01*
X166134099Y-128853175D01*
X165986890Y-128808524D01*
X165757000Y-128929845D01*
X165757000Y-130123000D01*
X165777000Y-130123000D01*
X165777000Y-130377000D01*
X165757000Y-130377000D01*
X165757000Y-131570155D01*
X165986890Y-131691476D01*
X166134099Y-131646825D01*
X166396920Y-131521641D01*
X166630269Y-131347588D01*
X166825178Y-131131355D01*
X166894805Y-131014466D01*
X167016525Y-131196632D01*
X167223368Y-131403475D01*
X167466589Y-131565990D01*
X167736842Y-131677932D01*
X168023740Y-131735000D01*
X168316260Y-131735000D01*
X168603158Y-131677932D01*
X168873411Y-131565990D01*
X169116632Y-131403475D01*
X169323475Y-131196632D01*
X169440000Y-131022240D01*
X169556525Y-131196632D01*
X169763368Y-131403475D01*
X170006589Y-131565990D01*
X170276842Y-131677932D01*
X170563740Y-131735000D01*
X170856260Y-131735000D01*
X171143158Y-131677932D01*
X171413411Y-131565990D01*
X171656632Y-131403475D01*
X171788487Y-131271620D01*
X171810498Y-131344180D01*
X171869463Y-131454494D01*
X171948815Y-131551185D01*
X172045506Y-131630537D01*
X172155820Y-131689502D01*
X172275518Y-131725812D01*
X172400000Y-131738072D01*
X174100000Y-131738072D01*
X174224482Y-131725812D01*
X174344180Y-131689502D01*
X174454494Y-131630537D01*
X174551185Y-131551185D01*
X174630537Y-131454494D01*
X174689502Y-131344180D01*
X174725812Y-131224482D01*
X174738072Y-131100000D01*
X174738072Y-129400000D01*
X174725812Y-129275518D01*
X174689502Y-129155820D01*
X174630537Y-129045506D01*
X174551185Y-128948815D01*
X174454494Y-128869463D01*
X174344180Y-128810498D01*
X174224482Y-128774188D01*
X174100000Y-128761928D01*
X172400000Y-128761928D01*
X172275518Y-128774188D01*
X172155820Y-128810498D01*
X172045506Y-128869463D01*
X171948815Y-128948815D01*
X171869463Y-129045506D01*
X171810498Y-129155820D01*
X171788487Y-129228380D01*
X171656632Y-129096525D01*
X171413411Y-128934010D01*
X171143158Y-128822068D01*
X170856260Y-128765000D01*
X170589803Y-128765000D01*
X154535000Y-112710199D01*
X154535000Y-112648061D01*
X154495226Y-112448102D01*
X154417205Y-112259744D01*
X154303937Y-112090226D01*
X154159774Y-111946063D01*
X153990256Y-111832795D01*
X153801898Y-111754774D01*
X153601939Y-111715000D01*
X153398061Y-111715000D01*
X153198102Y-111754774D01*
X153009744Y-111832795D01*
X152840226Y-111946063D01*
X152696063Y-112090226D01*
X152582795Y-112259744D01*
X152504774Y-112448102D01*
X152465000Y-112648061D01*
X151735000Y-112648061D01*
X151735000Y-108398057D01*
X156465000Y-108398057D01*
X156465000Y-108601935D01*
X156504774Y-108801894D01*
X156582795Y-108990252D01*
X156696063Y-109159770D01*
X156740001Y-109203708D01*
X156740000Y-110462677D01*
X156736324Y-110500000D01*
X156740000Y-110537322D01*
X156740000Y-110537332D01*
X156750997Y-110648985D01*
X156781639Y-110750000D01*
X156794454Y-110792246D01*
X156865026Y-110924276D01*
X156904180Y-110971985D01*
X156959999Y-111040001D01*
X156989003Y-111063804D01*
X160477653Y-114552455D01*
X160477653Y-114614592D01*
X160517427Y-114814551D01*
X160595448Y-115002909D01*
X160708716Y-115172427D01*
X160852879Y-115316590D01*
X161022397Y-115429858D01*
X161210755Y-115507879D01*
X161410714Y-115547653D01*
X161614592Y-115547653D01*
X161814551Y-115507879D01*
X162002909Y-115429858D01*
X162172427Y-115316590D01*
X162316590Y-115172427D01*
X162429858Y-115002909D01*
X162507879Y-114814551D01*
X162547653Y-114614592D01*
X162547653Y-114410714D01*
X162507879Y-114210755D01*
X162429858Y-114022397D01*
X162387900Y-113959602D01*
X162490256Y-113917205D01*
X162659774Y-113803937D01*
X162803937Y-113659774D01*
X162917205Y-113490256D01*
X162995226Y-113301898D01*
X163026015Y-113147108D01*
X163873664Y-112299460D01*
X163902662Y-112275662D01*
X163997635Y-112159937D01*
X164068207Y-112027908D01*
X164111664Y-111884647D01*
X164122661Y-111772994D01*
X164122661Y-111772985D01*
X164126337Y-111735662D01*
X164122661Y-111698339D01*
X164122661Y-109536890D01*
X170058524Y-109536890D01*
X170103175Y-109684099D01*
X170228359Y-109946920D01*
X170402412Y-110180269D01*
X170618645Y-110375178D01*
X170868748Y-110524157D01*
X171143109Y-110621481D01*
X171373000Y-110500814D01*
X171373000Y-109307000D01*
X171627000Y-109307000D01*
X171627000Y-110500814D01*
X171856891Y-110621481D01*
X172131252Y-110524157D01*
X172381355Y-110375178D01*
X172597588Y-110180269D01*
X172771641Y-109946920D01*
X172896825Y-109684099D01*
X172941476Y-109536890D01*
X172820155Y-109307000D01*
X171627000Y-109307000D01*
X171373000Y-109307000D01*
X170179845Y-109307000D01*
X170058524Y-109536890D01*
X164122661Y-109536890D01*
X164122661Y-107375072D01*
X164126337Y-107337747D01*
X164122661Y-107300422D01*
X164122661Y-107300414D01*
X164111664Y-107188761D01*
X164068207Y-107045500D01*
X163997635Y-106913471D01*
X163902662Y-106797746D01*
X163873665Y-106773949D01*
X163771767Y-106672051D01*
X163771767Y-106609914D01*
X163731993Y-106409955D01*
X163653972Y-106221597D01*
X163540704Y-106052079D01*
X163396541Y-105907916D01*
X163227023Y-105794648D01*
X163038665Y-105716627D01*
X162838706Y-105676853D01*
X162634828Y-105676853D01*
X162434869Y-105716627D01*
X162246511Y-105794648D01*
X162076993Y-105907916D01*
X161932830Y-106052079D01*
X161819562Y-106221597D01*
X161741541Y-106409955D01*
X161701767Y-106609914D01*
X161701767Y-106813792D01*
X161741541Y-107013751D01*
X161819562Y-107202109D01*
X161932830Y-107371627D01*
X162076993Y-107515790D01*
X162246511Y-107629058D01*
X162434869Y-107707079D01*
X162602661Y-107740455D01*
X162602662Y-110277860D01*
X162563803Y-110239002D01*
X162540001Y-110209999D01*
X162424276Y-110115026D01*
X162292247Y-110044454D01*
X162148986Y-110000997D01*
X162037333Y-109990000D01*
X162037322Y-109990000D01*
X162000000Y-109986324D01*
X161962678Y-109990000D01*
X160703711Y-109990000D01*
X160659774Y-109946063D01*
X160490256Y-109832795D01*
X160301898Y-109754774D01*
X160101939Y-109715000D01*
X159898061Y-109715000D01*
X159698102Y-109754774D01*
X159509744Y-109832795D01*
X159340226Y-109946063D01*
X159196063Y-110090226D01*
X159082795Y-110259744D01*
X159004774Y-110448102D01*
X158965000Y-110648061D01*
X158965000Y-110851939D01*
X158974500Y-110899699D01*
X158260000Y-110185199D01*
X158260000Y-109203707D01*
X158303937Y-109159770D01*
X158417205Y-108990252D01*
X158495226Y-108801894D01*
X158535000Y-108601935D01*
X158535000Y-108398057D01*
X158495226Y-108198098D01*
X158417205Y-108009740D01*
X158303937Y-107840222D01*
X158159774Y-107696059D01*
X157990256Y-107582791D01*
X157801898Y-107504770D01*
X157601939Y-107464996D01*
X157398061Y-107464996D01*
X157198102Y-107504770D01*
X157009744Y-107582791D01*
X156840226Y-107696059D01*
X156696063Y-107840222D01*
X156582795Y-108009740D01*
X156504774Y-108198098D01*
X156465000Y-108398057D01*
X151735000Y-108398057D01*
X151735000Y-104100000D01*
X151722799Y-103976118D01*
X151686664Y-103856996D01*
X151627983Y-103747213D01*
X151549013Y-103650987D01*
X151452787Y-103572017D01*
X151343004Y-103513336D01*
X151223882Y-103477201D01*
X151100000Y-103465000D01*
X141750000Y-103465000D01*
X141685229Y-103471379D01*
X141679951Y-103148061D01*
X164965000Y-103148061D01*
X164965000Y-103351939D01*
X165004774Y-103551898D01*
X165082795Y-103740256D01*
X165196063Y-103909774D01*
X165340226Y-104053937D01*
X165509744Y-104167205D01*
X165698102Y-104245226D01*
X165740000Y-104253560D01*
X165740001Y-105121278D01*
X165696063Y-105165216D01*
X165582795Y-105334734D01*
X165504774Y-105523092D01*
X165465000Y-105723051D01*
X165465000Y-105926929D01*
X165504774Y-106126888D01*
X165582795Y-106315246D01*
X165696063Y-106484764D01*
X165840226Y-106628927D01*
X166009744Y-106742195D01*
X166198102Y-106820216D01*
X166398061Y-106859990D01*
X166601939Y-106859990D01*
X166801589Y-106820277D01*
X166838803Y-106857491D01*
X167008321Y-106970759D01*
X167196679Y-107048780D01*
X167396638Y-107088554D01*
X167600516Y-107088554D01*
X167800475Y-107048780D01*
X167988833Y-106970759D01*
X168158351Y-106857491D01*
X168302514Y-106713328D01*
X168415782Y-106543810D01*
X168493803Y-106355452D01*
X168533577Y-106155493D01*
X168533577Y-105951615D01*
X168493803Y-105751656D01*
X168415782Y-105563298D01*
X168302514Y-105393780D01*
X168260000Y-105351266D01*
X168260000Y-103953711D01*
X168303937Y-103909774D01*
X168417205Y-103740256D01*
X168495226Y-103551898D01*
X168535000Y-103351939D01*
X168535000Y-103250000D01*
X170011928Y-103250000D01*
X170011928Y-104950000D01*
X170024188Y-105074482D01*
X170060498Y-105194180D01*
X170119463Y-105304494D01*
X170198815Y-105401185D01*
X170295506Y-105480537D01*
X170405820Y-105539502D01*
X170478380Y-105561513D01*
X170346525Y-105693368D01*
X170184010Y-105936589D01*
X170072068Y-106206842D01*
X170015000Y-106493740D01*
X170015000Y-106786260D01*
X170072068Y-107073158D01*
X170184010Y-107343411D01*
X170346525Y-107586632D01*
X170553368Y-107793475D01*
X170735534Y-107915195D01*
X170618645Y-107984822D01*
X170402412Y-108179731D01*
X170228359Y-108413080D01*
X170103175Y-108675901D01*
X170058524Y-108823110D01*
X170179845Y-109053000D01*
X171373000Y-109053000D01*
X171373000Y-109033000D01*
X171627000Y-109033000D01*
X171627000Y-109053000D01*
X172820155Y-109053000D01*
X172941476Y-108823110D01*
X172896825Y-108675901D01*
X172771641Y-108413080D01*
X172597588Y-108179731D01*
X172381355Y-107984822D01*
X172264466Y-107915195D01*
X172446632Y-107793475D01*
X172653475Y-107586632D01*
X172815990Y-107343411D01*
X172927932Y-107073158D01*
X172985000Y-106786260D01*
X172985000Y-106493740D01*
X172927932Y-106206842D01*
X172815990Y-105936589D01*
X172653475Y-105693368D01*
X172521620Y-105561513D01*
X172594180Y-105539502D01*
X172704494Y-105480537D01*
X172801185Y-105401185D01*
X172880537Y-105304494D01*
X172939502Y-105194180D01*
X172975812Y-105074482D01*
X172988072Y-104950000D01*
X172988072Y-103250000D01*
X172975812Y-103125518D01*
X172939502Y-103005820D01*
X172880537Y-102895506D01*
X172801185Y-102798815D01*
X172704494Y-102719463D01*
X172594180Y-102660498D01*
X172474482Y-102624188D01*
X172350000Y-102611928D01*
X170650000Y-102611928D01*
X170525518Y-102624188D01*
X170405820Y-102660498D01*
X170295506Y-102719463D01*
X170198815Y-102798815D01*
X170119463Y-102895506D01*
X170060498Y-103005820D01*
X170024188Y-103125518D01*
X170011928Y-103250000D01*
X168535000Y-103250000D01*
X168535000Y-103148061D01*
X168495226Y-102948102D01*
X168417205Y-102759744D01*
X168303937Y-102590226D01*
X168159774Y-102446063D01*
X167990256Y-102332795D01*
X167801898Y-102254774D01*
X167601939Y-102215000D01*
X167398061Y-102215000D01*
X167198102Y-102254774D01*
X167009744Y-102332795D01*
X166840226Y-102446063D01*
X166750000Y-102536289D01*
X166659774Y-102446063D01*
X166490256Y-102332795D01*
X166301898Y-102254774D01*
X166101939Y-102215000D01*
X165898061Y-102215000D01*
X165698102Y-102254774D01*
X165509744Y-102332795D01*
X165340226Y-102446063D01*
X165196063Y-102590226D01*
X165082795Y-102759744D01*
X165004774Y-102948102D01*
X164965000Y-103148061D01*
X141679951Y-103148061D01*
X141645740Y-101052684D01*
X142832844Y-101084768D01*
X142982460Y-101071031D01*
X143101072Y-101033256D01*
X143210035Y-100973067D01*
X143305163Y-100892777D01*
X143382799Y-100795472D01*
X143439959Y-100684890D01*
X143474448Y-100565281D01*
X143484940Y-100441242D01*
X143437895Y-97030448D01*
X143465537Y-97048918D01*
X143763088Y-97172168D01*
X144078967Y-97235000D01*
X144401033Y-97235000D01*
X144716912Y-97172168D01*
X145014463Y-97048918D01*
X145282252Y-96869987D01*
X145509987Y-96642252D01*
X145510000Y-96642233D01*
X145510013Y-96642252D01*
X145737748Y-96869987D01*
X146005537Y-97048918D01*
X146303088Y-97172168D01*
X146618967Y-97235000D01*
X146941033Y-97235000D01*
X147256912Y-97172168D01*
X147554463Y-97048918D01*
X147822252Y-96869987D01*
X148049987Y-96642252D01*
X148050000Y-96642233D01*
X148050013Y-96642252D01*
X148277748Y-96869987D01*
X148545537Y-97048918D01*
X148843088Y-97172168D01*
X149158967Y-97235000D01*
X149481033Y-97235000D01*
X149796912Y-97172168D01*
X150094463Y-97048918D01*
X150362252Y-96869987D01*
X150589987Y-96642252D01*
X150590000Y-96642233D01*
X150590013Y-96642252D01*
X150817748Y-96869987D01*
X151085537Y-97048918D01*
X151383088Y-97172168D01*
X151698967Y-97235000D01*
X152021033Y-97235000D01*
X152336912Y-97172168D01*
X152634463Y-97048918D01*
X152902252Y-96869987D01*
X153129987Y-96642252D01*
X153130000Y-96642233D01*
X153130013Y-96642252D01*
X153357748Y-96869987D01*
X153625537Y-97048918D01*
X153923088Y-97172168D01*
X154238967Y-97235000D01*
X154561033Y-97235000D01*
X154876912Y-97172168D01*
X155174463Y-97048918D01*
X155442252Y-96869987D01*
X155669987Y-96642252D01*
X155670000Y-96642233D01*
X155670013Y-96642252D01*
X155897748Y-96869987D01*
X156165537Y-97048918D01*
X156463088Y-97172168D01*
X156778967Y-97235000D01*
X157101033Y-97235000D01*
X157416912Y-97172168D01*
X157714463Y-97048918D01*
X157982252Y-96869987D01*
X158209987Y-96642252D01*
X158210000Y-96642233D01*
X158210013Y-96642252D01*
X158437748Y-96869987D01*
X158705537Y-97048918D01*
X159003088Y-97172168D01*
X159318967Y-97235000D01*
X159641033Y-97235000D01*
X159956912Y-97172168D01*
X160254463Y-97048918D01*
X160522252Y-96869987D01*
X160749987Y-96642252D01*
X160750000Y-96642233D01*
X160750013Y-96642252D01*
X160977748Y-96869987D01*
X161245537Y-97048918D01*
X161543088Y-97172168D01*
X161858967Y-97235000D01*
X162181033Y-97235000D01*
X162496912Y-97172168D01*
X162794463Y-97048918D01*
X163062252Y-96869987D01*
X163289987Y-96642252D01*
X163290000Y-96642233D01*
X163290013Y-96642252D01*
X163517748Y-96869987D01*
X163785537Y-97048918D01*
X164083088Y-97172168D01*
X164398967Y-97235000D01*
X164721033Y-97235000D01*
X165036912Y-97172168D01*
X165334463Y-97048918D01*
X165602252Y-96869987D01*
X165829987Y-96642252D01*
X165830000Y-96642233D01*
X165830013Y-96642252D01*
X166057748Y-96869987D01*
X166325537Y-97048918D01*
X166623088Y-97172168D01*
X166938967Y-97235000D01*
X167261033Y-97235000D01*
X167576912Y-97172168D01*
X167874463Y-97048918D01*
X168142252Y-96869987D01*
X168369987Y-96642252D01*
X168370000Y-96642233D01*
X168370013Y-96642252D01*
X168597748Y-96869987D01*
X168865537Y-97048918D01*
X169163088Y-97172168D01*
X169478967Y-97235000D01*
X169801033Y-97235000D01*
X170116912Y-97172168D01*
X170414463Y-97048918D01*
X170682252Y-96869987D01*
X170909987Y-96642252D01*
X170910000Y-96642233D01*
X170910013Y-96642252D01*
X171137748Y-96869987D01*
X171405537Y-97048918D01*
X171703088Y-97172168D01*
X172018967Y-97235000D01*
X172341033Y-97235000D01*
X172656912Y-97172168D01*
X172954463Y-97048918D01*
X173222252Y-96869987D01*
X173449987Y-96642252D01*
X173450000Y-96642233D01*
X173450013Y-96642252D01*
X173677748Y-96869987D01*
X173945537Y-97048918D01*
X174243088Y-97172168D01*
X174558967Y-97235000D01*
X174881033Y-97235000D01*
X175196912Y-97172168D01*
X175494463Y-97048918D01*
X175762252Y-96869987D01*
X175896826Y-96735413D01*
X176304192Y-96735413D01*
X176399956Y-96999814D01*
X176689571Y-97140704D01*
X177001108Y-97222384D01*
X177322595Y-97241718D01*
X177641675Y-97197961D01*
X177946088Y-97092795D01*
X178120044Y-96999814D01*
X178215808Y-96735413D01*
X177260000Y-95779605D01*
X176304192Y-96735413D01*
X175896826Y-96735413D01*
X175989987Y-96642252D01*
X176062720Y-96533400D01*
X176124587Y-96555808D01*
X177080395Y-95600000D01*
X177439605Y-95600000D01*
X178395413Y-96555808D01*
X178659814Y-96460044D01*
X178729959Y-96315852D01*
X180875000Y-96315852D01*
X180875000Y-96884148D01*
X180985869Y-97441523D01*
X181203346Y-97966560D01*
X181519074Y-98439080D01*
X181920920Y-98840926D01*
X182393440Y-99156654D01*
X182918477Y-99374131D01*
X183475852Y-99485000D01*
X184044148Y-99485000D01*
X184601523Y-99374131D01*
X185126560Y-99156654D01*
X185599080Y-98840926D01*
X186000926Y-98439080D01*
X186316654Y-97966560D01*
X186534131Y-97441523D01*
X186645000Y-96884148D01*
X186645000Y-96315852D01*
X186534131Y-95758477D01*
X186316654Y-95233440D01*
X186000926Y-94760920D01*
X185599080Y-94359074D01*
X185126560Y-94043346D01*
X184601523Y-93825869D01*
X184044148Y-93715000D01*
X183475852Y-93715000D01*
X182918477Y-93825869D01*
X182393440Y-94043346D01*
X181920920Y-94359074D01*
X181519074Y-94760920D01*
X181203346Y-95233440D01*
X180985869Y-95758477D01*
X180875000Y-96315852D01*
X178729959Y-96315852D01*
X178800704Y-96170429D01*
X178882384Y-95858892D01*
X178901718Y-95537405D01*
X178857961Y-95218325D01*
X178752795Y-94913912D01*
X178659814Y-94739956D01*
X178395413Y-94644192D01*
X177439605Y-95600000D01*
X177080395Y-95600000D01*
X176124587Y-94644192D01*
X176062720Y-94666600D01*
X175989987Y-94557748D01*
X175896826Y-94464587D01*
X176304192Y-94464587D01*
X177260000Y-95420395D01*
X178215808Y-94464587D01*
X178120044Y-94200186D01*
X177830429Y-94059296D01*
X177518892Y-93977616D01*
X177197405Y-93958282D01*
X176878325Y-94002039D01*
X176573912Y-94107205D01*
X176399956Y-94200186D01*
X176304192Y-94464587D01*
X175896826Y-94464587D01*
X175762252Y-94330013D01*
X175494463Y-94151082D01*
X175196912Y-94027832D01*
X174881033Y-93965000D01*
X174558967Y-93965000D01*
X174243088Y-94027832D01*
X173945537Y-94151082D01*
X173677748Y-94330013D01*
X173450013Y-94557748D01*
X173450000Y-94557767D01*
X173449987Y-94557748D01*
X173222252Y-94330013D01*
X172954463Y-94151082D01*
X172656912Y-94027832D01*
X172341033Y-93965000D01*
X172018967Y-93965000D01*
X171703088Y-94027832D01*
X171405537Y-94151082D01*
X171137748Y-94330013D01*
X170910013Y-94557748D01*
X170910000Y-94557767D01*
X170909987Y-94557748D01*
X170682252Y-94330013D01*
X170414463Y-94151082D01*
X170116912Y-94027832D01*
X169801033Y-93965000D01*
X169478967Y-93965000D01*
X169163088Y-94027832D01*
X168865537Y-94151082D01*
X168597748Y-94330013D01*
X168370013Y-94557748D01*
X168370000Y-94557767D01*
X168369987Y-94557748D01*
X168142252Y-94330013D01*
X167874463Y-94151082D01*
X167576912Y-94027832D01*
X167261033Y-93965000D01*
X166938967Y-93965000D01*
X166623088Y-94027832D01*
X166325537Y-94151082D01*
X166057748Y-94330013D01*
X165830013Y-94557748D01*
X165830000Y-94557767D01*
X165829987Y-94557748D01*
X165602252Y-94330013D01*
X165334463Y-94151082D01*
X165036912Y-94027832D01*
X164721033Y-93965000D01*
X164398967Y-93965000D01*
X164083088Y-94027832D01*
X163785537Y-94151082D01*
X163517748Y-94330013D01*
X163290013Y-94557748D01*
X163290000Y-94557767D01*
X163289987Y-94557748D01*
X163062252Y-94330013D01*
X162794463Y-94151082D01*
X162496912Y-94027832D01*
X162181033Y-93965000D01*
X161858967Y-93965000D01*
X161543088Y-94027832D01*
X161245537Y-94151082D01*
X160977748Y-94330013D01*
X160750013Y-94557748D01*
X160750000Y-94557767D01*
X160749987Y-94557748D01*
X160522252Y-94330013D01*
X160254463Y-94151082D01*
X159956912Y-94027832D01*
X159641033Y-93965000D01*
X159318967Y-93965000D01*
X159003088Y-94027832D01*
X158705537Y-94151082D01*
X158437748Y-94330013D01*
X158210013Y-94557748D01*
X158210000Y-94557767D01*
X158209987Y-94557748D01*
X157982252Y-94330013D01*
X157714463Y-94151082D01*
X157416912Y-94027832D01*
X157101033Y-93965000D01*
X156778967Y-93965000D01*
X156463088Y-94027832D01*
X156165537Y-94151082D01*
X155897748Y-94330013D01*
X155670013Y-94557748D01*
X155670000Y-94557767D01*
X155669987Y-94557748D01*
X155442252Y-94330013D01*
X155174463Y-94151082D01*
X154876912Y-94027832D01*
X154561033Y-93965000D01*
X154238967Y-93965000D01*
X153923088Y-94027832D01*
X153625537Y-94151082D01*
X153357748Y-94330013D01*
X153130013Y-94557748D01*
X153130000Y-94557767D01*
X153129987Y-94557748D01*
X152902252Y-94330013D01*
X152634463Y-94151082D01*
X152336912Y-94027832D01*
X152021033Y-93965000D01*
X151698967Y-93965000D01*
X151383088Y-94027832D01*
X151085537Y-94151082D01*
X150817748Y-94330013D01*
X150590013Y-94557748D01*
X150590000Y-94557767D01*
X150589987Y-94557748D01*
X150362252Y-94330013D01*
X150094463Y-94151082D01*
X149796912Y-94027832D01*
X149481033Y-93965000D01*
X149158967Y-93965000D01*
X148843088Y-94027832D01*
X148545537Y-94151082D01*
X148277748Y-94330013D01*
X148050013Y-94557748D01*
X148050000Y-94557767D01*
X148049987Y-94557748D01*
X147822252Y-94330013D01*
X147554463Y-94151082D01*
X147256912Y-94027832D01*
X146941033Y-93965000D01*
X146618967Y-93965000D01*
X146303088Y-94027832D01*
X146005537Y-94151082D01*
X145737748Y-94330013D01*
X145510013Y-94557748D01*
X145510000Y-94557767D01*
X145509987Y-94557748D01*
X145282252Y-94330013D01*
X145014463Y-94151082D01*
X144716912Y-94027832D01*
X144401033Y-93965000D01*
X144078967Y-93965000D01*
X143763088Y-94027832D01*
X143465537Y-94151082D01*
X143325746Y-94244487D01*
X143249013Y-94150987D01*
X143152787Y-94072017D01*
X143043004Y-94013336D01*
X142923882Y-93977201D01*
X142800000Y-93965000D01*
X140600000Y-93965000D01*
X140476118Y-93977201D01*
X140356996Y-94013336D01*
X140247213Y-94072017D01*
X140150987Y-94150987D01*
X140072017Y-94247213D01*
X140051190Y-94286178D01*
X140020044Y-94200186D01*
X139730429Y-94059296D01*
X139418892Y-93977616D01*
X139097405Y-93958282D01*
X138778325Y-94002039D01*
X138473912Y-94107205D01*
X138299956Y-94200186D01*
X138204192Y-94464587D01*
X139160000Y-95420395D01*
X139174143Y-95406253D01*
X139353748Y-95585858D01*
X139339605Y-95600000D01*
X139353748Y-95614143D01*
X139174143Y-95793748D01*
X139160000Y-95779605D01*
X138204192Y-96735413D01*
X138299956Y-96999814D01*
X138589571Y-97140704D01*
X138901108Y-97222384D01*
X139222595Y-97241718D01*
X139541675Y-97197961D01*
X139846088Y-97092795D01*
X139965000Y-97029235D01*
X139965000Y-98165000D01*
X139600000Y-98165000D01*
X139471996Y-98178035D01*
X139353116Y-98214959D01*
X139243724Y-98274365D01*
X139148024Y-98353971D01*
X139069692Y-98450717D01*
X139011740Y-98560886D01*
X138976395Y-98680245D01*
X138965014Y-98804205D01*
X139010781Y-105715000D01*
X138450000Y-105715000D01*
X138340631Y-105724489D01*
X138220701Y-105757845D01*
X138109584Y-105813957D01*
X138011548Y-105890669D01*
X137930362Y-105985033D01*
X137869145Y-106093422D01*
X137830250Y-106211671D01*
X137815172Y-106335237D01*
X137679596Y-112165000D01*
X133635000Y-112165000D01*
X133635000Y-110000000D01*
X133622799Y-109876118D01*
X133586664Y-109756996D01*
X133527983Y-109647213D01*
X133449013Y-109550987D01*
X133352787Y-109472017D01*
X133243004Y-109413336D01*
X133123882Y-109377201D01*
X133000000Y-109365000D01*
X132243601Y-109365000D01*
X132135687Y-109276437D01*
X132003658Y-109205865D01*
X131860397Y-109162408D01*
X131748744Y-109151411D01*
X131748733Y-109151411D01*
X131711411Y-109147735D01*
X131674089Y-109151411D01*
X126940637Y-109151411D01*
X126903314Y-109147735D01*
X126865991Y-109151411D01*
X126865982Y-109151411D01*
X126754329Y-109162408D01*
X126611068Y-109205865D01*
X126560000Y-109233162D01*
X126560000Y-107953711D01*
X126603937Y-107909774D01*
X126717205Y-107740256D01*
X126795226Y-107551898D01*
X126835000Y-107351939D01*
X126835000Y-107148061D01*
X126795226Y-106948102D01*
X126717205Y-106759744D01*
X126603937Y-106590226D01*
X126459774Y-106446063D01*
X126290256Y-106332795D01*
X126101898Y-106254774D01*
X125901939Y-106215000D01*
X125698061Y-106215000D01*
X125498102Y-106254774D01*
X125309744Y-106332795D01*
X125140226Y-106446063D01*
X124996063Y-106590226D01*
X124882795Y-106759744D01*
X124804774Y-106948102D01*
X124765000Y-107148061D01*
X124765000Y-107351939D01*
X124804774Y-107551898D01*
X124882795Y-107740256D01*
X124996063Y-107909774D01*
X125040000Y-107953711D01*
X125040001Y-110685193D01*
X124760199Y-110964996D01*
X124698061Y-110964996D01*
X124498102Y-111004770D01*
X124309744Y-111082791D01*
X124140226Y-111196059D01*
X123996063Y-111340222D01*
X123882795Y-111509740D01*
X123804774Y-111698098D01*
X123765000Y-111898057D01*
X123765000Y-112101935D01*
X123804774Y-112301894D01*
X123882795Y-112490252D01*
X123996063Y-112659770D01*
X124140226Y-112803933D01*
X124309744Y-112917201D01*
X124379220Y-112945979D01*
X124160199Y-113165000D01*
X124098061Y-113165000D01*
X123898102Y-113204774D01*
X123709744Y-113282795D01*
X123540226Y-113396063D01*
X123396063Y-113540226D01*
X123282795Y-113709744D01*
X123204774Y-113898102D01*
X123165000Y-114098061D01*
X123165000Y-114301939D01*
X123204774Y-114501898D01*
X123282795Y-114690256D01*
X123396063Y-114859774D01*
X123540226Y-115003937D01*
X123709744Y-115117205D01*
X123898102Y-115195226D01*
X124098061Y-115235000D01*
X124301939Y-115235000D01*
X124501898Y-115195226D01*
X124690256Y-115117205D01*
X124859774Y-115003937D01*
X125003937Y-114859774D01*
X125117205Y-114690256D01*
X125195226Y-114501898D01*
X125235000Y-114301939D01*
X125235000Y-114239801D01*
X125983627Y-113491174D01*
X125996063Y-113509786D01*
X126140226Y-113653949D01*
X126309744Y-113767217D01*
X126498102Y-113845238D01*
X126698061Y-113885012D01*
X126901939Y-113885012D01*
X127101898Y-113845238D01*
X127290256Y-113767217D01*
X127459774Y-113653949D01*
X127603937Y-113509786D01*
X127717205Y-113340268D01*
X127795226Y-113151910D01*
X127835000Y-112951951D01*
X127835000Y-112748073D01*
X127826986Y-112707785D01*
X127836538Y-112610807D01*
X127836538Y-112610799D01*
X127840214Y-112573474D01*
X127836538Y-112536149D01*
X127836538Y-112103711D01*
X127880475Y-112059774D01*
X127993743Y-111890256D01*
X128071764Y-111701898D01*
X128111538Y-111501939D01*
X128111538Y-111298061D01*
X128071764Y-111098102D01*
X127993743Y-110909744D01*
X127880475Y-110740226D01*
X127811660Y-110671411D01*
X130965000Y-110671411D01*
X130965000Y-114000000D01*
X130977201Y-114123882D01*
X131013336Y-114243004D01*
X131072017Y-114352787D01*
X131150987Y-114449013D01*
X131247213Y-114527983D01*
X131356996Y-114586664D01*
X131476118Y-114622799D01*
X131600000Y-114635000D01*
X132965000Y-114635000D01*
X132965000Y-123300000D01*
X132977201Y-123423882D01*
X133013336Y-123543004D01*
X133072017Y-123652787D01*
X133150987Y-123749013D01*
X133247213Y-123827983D01*
X133356996Y-123886664D01*
X133476118Y-123922799D01*
X133600000Y-123935000D01*
X134965000Y-123935000D01*
X134965000Y-131000000D01*
X134977201Y-131123882D01*
X135013336Y-131243004D01*
X135072017Y-131352787D01*
X135150987Y-131449013D01*
X135247213Y-131527983D01*
X135356996Y-131586664D01*
X135476118Y-131622799D01*
X135600000Y-131635000D01*
X144000000Y-131635000D01*
X144123882Y-131622799D01*
X144243004Y-131586664D01*
X144352787Y-131527983D01*
X144449013Y-131449013D01*
X144527983Y-131352787D01*
X144586664Y-131243004D01*
X144622799Y-131123882D01*
X144635000Y-131000000D01*
X144635000Y-106450000D01*
X144619388Y-106310058D01*
X144580185Y-106191910D01*
X144536546Y-106115112D01*
X148115000Y-106089552D01*
X148115000Y-131916500D01*
X128235000Y-131963497D01*
X128235000Y-125835000D01*
X129800000Y-125835000D01*
X129923882Y-125822799D01*
X130043004Y-125786664D01*
X130152787Y-125727983D01*
X130249013Y-125649013D01*
X130327983Y-125552787D01*
X130386664Y-125443004D01*
X130422799Y-125323882D01*
X130435000Y-125200000D01*
X130435000Y-116600000D01*
X130422799Y-116476118D01*
X130386664Y-116356996D01*
X130327983Y-116247213D01*
X130249013Y-116150987D01*
X130152787Y-116072017D01*
X130043004Y-116013336D01*
X129923882Y-115977201D01*
X129800000Y-115965000D01*
X128200000Y-115965000D01*
X128076118Y-115977201D01*
X127956996Y-116013336D01*
X127847213Y-116072017D01*
X127750987Y-116150987D01*
X127672017Y-116247213D01*
X127613336Y-116356996D01*
X127577201Y-116476118D01*
X127565000Y-116600000D01*
X127565000Y-120165000D01*
X123700000Y-120165000D01*
X123576118Y-120177201D01*
X123456996Y-120213336D01*
X123347213Y-120272017D01*
X123250987Y-120350987D01*
X123172017Y-120447213D01*
X123113336Y-120556996D01*
X123077201Y-120676118D01*
X123065000Y-120800000D01*
X113131583Y-120800000D01*
X113160922Y-120775922D01*
X113296509Y-120610710D01*
X113397259Y-120422220D01*
X113459300Y-120217697D01*
X113480249Y-120005000D01*
X113459300Y-119792303D01*
X113397259Y-119587780D01*
X113296509Y-119399290D01*
X113160922Y-119234078D01*
X112995710Y-119098491D01*
X112807220Y-118997741D01*
X112602697Y-118935700D01*
X112443294Y-118920000D01*
X111636706Y-118920000D01*
X111477303Y-118935700D01*
X111272780Y-118997741D01*
X111084290Y-119098491D01*
X110919078Y-119234078D01*
X110783491Y-119399290D01*
X110682741Y-119587780D01*
X110660000Y-119662747D01*
X110660000Y-113747253D01*
X110682741Y-113822220D01*
X110783491Y-114010710D01*
X110919078Y-114175922D01*
X111084290Y-114311509D01*
X111272780Y-114412259D01*
X111477303Y-114474300D01*
X111636706Y-114490000D01*
X112443294Y-114490000D01*
X112602697Y-114474300D01*
X112807220Y-114412259D01*
X112995710Y-114311509D01*
X113160922Y-114175922D01*
X113296509Y-114010710D01*
X113397259Y-113822220D01*
X113459300Y-113617697D01*
X113480249Y-113405000D01*
X113459300Y-113192303D01*
X113397259Y-112987780D01*
X113296509Y-112799290D01*
X113160922Y-112634078D01*
X112995710Y-112498491D01*
X112807220Y-112397741D01*
X112602697Y-112335700D01*
X112443294Y-112320000D01*
X111636706Y-112320000D01*
X111477303Y-112335700D01*
X111272780Y-112397741D01*
X111084290Y-112498491D01*
X110919078Y-112634078D01*
X110783491Y-112799290D01*
X110682741Y-112987780D01*
X110660000Y-113062747D01*
X110660000Y-92685341D01*
X113007634Y-92688501D01*
G36*
X142673000Y-95110611D02*
G01*
X142667832Y-95123088D01*
X142605000Y-95438967D01*
X142605000Y-95761033D01*
X142667832Y-96076912D01*
X142673000Y-96089389D01*
X142673000Y-96825000D01*
X142673012Y-96826752D01*
X142721187Y-100319472D01*
X141003431Y-100273046D01*
X140978598Y-100274816D01*
X140954587Y-100281397D01*
X140932321Y-100292536D01*
X140912656Y-100307804D01*
X140896348Y-100326615D01*
X140884023Y-100348247D01*
X140876155Y-100371867D01*
X140873017Y-100402073D01*
X140973017Y-106527073D01*
X140975861Y-106551807D01*
X140983476Y-106575510D01*
X140995569Y-106597272D01*
X141011675Y-106616257D01*
X141031176Y-106631734D01*
X141053321Y-106643110D01*
X141077260Y-106649948D01*
X141103283Y-106651958D01*
X143873000Y-106580327D01*
X143873000Y-108124742D01*
X143782795Y-108259744D01*
X143704774Y-108448102D01*
X143665000Y-108648061D01*
X143665000Y-108851939D01*
X143704774Y-109051898D01*
X143782795Y-109240256D01*
X143873000Y-109375258D01*
X143873000Y-130873000D01*
X135727000Y-130873000D01*
X135727000Y-123300000D01*
X135724560Y-123275224D01*
X135717333Y-123251399D01*
X135705597Y-123229443D01*
X135689803Y-123210197D01*
X135670557Y-123194403D01*
X135648601Y-123182667D01*
X135624776Y-123175440D01*
X135600000Y-123173000D01*
X133727000Y-123173000D01*
X133727000Y-114000000D01*
X133724560Y-113975224D01*
X133717333Y-113951399D01*
X133705597Y-113929443D01*
X133689803Y-113910197D01*
X133670557Y-113894403D01*
X133648601Y-113882667D01*
X133624776Y-113875440D01*
X133600000Y-113873000D01*
X131727000Y-113873000D01*
X131727000Y-110127000D01*
X132873000Y-110127000D01*
X132873000Y-112800000D01*
X132875440Y-112824776D01*
X132882667Y-112848601D01*
X132894403Y-112870557D01*
X132910197Y-112889803D01*
X132929443Y-112905597D01*
X132951399Y-112917333D01*
X132975224Y-112924560D01*
X133000000Y-112927000D01*
X138300000Y-112927000D01*
X138324776Y-112924560D01*
X138348601Y-112917333D01*
X138370557Y-112905597D01*
X138389803Y-112889803D01*
X138405597Y-112870557D01*
X138417333Y-112848601D01*
X138424560Y-112824776D01*
X138426966Y-112802953D01*
X138574081Y-106477000D01*
X139650000Y-106477000D01*
X139674776Y-106474560D01*
X139698601Y-106467333D01*
X139720557Y-106455597D01*
X139739803Y-106439803D01*
X139755597Y-106420557D01*
X139767333Y-106398601D01*
X139774560Y-106374776D01*
X139776997Y-106349159D01*
X139727844Y-98927000D01*
X140600000Y-98927000D01*
X140624776Y-98924560D01*
X140648601Y-98917333D01*
X140670557Y-98905597D01*
X140689803Y-98889803D01*
X140705597Y-98870557D01*
X140717333Y-98848601D01*
X140724560Y-98824776D01*
X140727000Y-98800000D01*
X140727000Y-96089389D01*
X140732168Y-96076912D01*
X140795000Y-95761033D01*
X140795000Y-95438967D01*
X140732168Y-95123088D01*
X140727000Y-95110611D01*
X140727000Y-94727000D01*
X142673000Y-94727000D01*
X142673000Y-95110611D01*
G37*
X142673000Y-95110611D02*
X142667832Y-95123088D01*
X142605000Y-95438967D01*
X142605000Y-95761033D01*
X142667832Y-96076912D01*
X142673000Y-96089389D01*
X142673000Y-96825000D01*
X142673012Y-96826752D01*
X142721187Y-100319472D01*
X141003431Y-100273046D01*
X140978598Y-100274816D01*
X140954587Y-100281397D01*
X140932321Y-100292536D01*
X140912656Y-100307804D01*
X140896348Y-100326615D01*
X140884023Y-100348247D01*
X140876155Y-100371867D01*
X140873017Y-100402073D01*
X140973017Y-106527073D01*
X140975861Y-106551807D01*
X140983476Y-106575510D01*
X140995569Y-106597272D01*
X141011675Y-106616257D01*
X141031176Y-106631734D01*
X141053321Y-106643110D01*
X141077260Y-106649948D01*
X141103283Y-106651958D01*
X143873000Y-106580327D01*
X143873000Y-108124742D01*
X143782795Y-108259744D01*
X143704774Y-108448102D01*
X143665000Y-108648061D01*
X143665000Y-108851939D01*
X143704774Y-109051898D01*
X143782795Y-109240256D01*
X143873000Y-109375258D01*
X143873000Y-130873000D01*
X135727000Y-130873000D01*
X135727000Y-123300000D01*
X135724560Y-123275224D01*
X135717333Y-123251399D01*
X135705597Y-123229443D01*
X135689803Y-123210197D01*
X135670557Y-123194403D01*
X135648601Y-123182667D01*
X135624776Y-123175440D01*
X135600000Y-123173000D01*
X133727000Y-123173000D01*
X133727000Y-114000000D01*
X133724560Y-113975224D01*
X133717333Y-113951399D01*
X133705597Y-113929443D01*
X133689803Y-113910197D01*
X133670557Y-113894403D01*
X133648601Y-113882667D01*
X133624776Y-113875440D01*
X133600000Y-113873000D01*
X131727000Y-113873000D01*
X131727000Y-110127000D01*
X132873000Y-110127000D01*
X132873000Y-112800000D01*
X132875440Y-112824776D01*
X132882667Y-112848601D01*
X132894403Y-112870557D01*
X132910197Y-112889803D01*
X132929443Y-112905597D01*
X132951399Y-112917333D01*
X132975224Y-112924560D01*
X133000000Y-112927000D01*
X138300000Y-112927000D01*
X138324776Y-112924560D01*
X138348601Y-112917333D01*
X138370557Y-112905597D01*
X138389803Y-112889803D01*
X138405597Y-112870557D01*
X138417333Y-112848601D01*
X138424560Y-112824776D01*
X138426966Y-112802953D01*
X138574081Y-106477000D01*
X139650000Y-106477000D01*
X139674776Y-106474560D01*
X139698601Y-106467333D01*
X139720557Y-106455597D01*
X139739803Y-106439803D01*
X139755597Y-106420557D01*
X139767333Y-106398601D01*
X139774560Y-106374776D01*
X139776997Y-106349159D01*
X139727844Y-98927000D01*
X140600000Y-98927000D01*
X140624776Y-98924560D01*
X140648601Y-98917333D01*
X140670557Y-98905597D01*
X140689803Y-98889803D01*
X140705597Y-98870557D01*
X140717333Y-98848601D01*
X140724560Y-98824776D01*
X140727000Y-98800000D01*
X140727000Y-96089389D01*
X140732168Y-96076912D01*
X140795000Y-95761033D01*
X140795000Y-95438967D01*
X140732168Y-95123088D01*
X140727000Y-95110611D01*
X140727000Y-94727000D01*
X142673000Y-94727000D01*
X142673000Y-95110611D01*
G36*
X150973000Y-128700000D02*
G01*
X150975440Y-128724776D01*
X150982667Y-128748601D01*
X150994403Y-128770557D01*
X151010197Y-128789803D01*
X151029443Y-128805597D01*
X151051399Y-128817333D01*
X151075224Y-128824560D01*
X151100000Y-128827000D01*
X164110917Y-128827000D01*
X164135080Y-136172370D01*
X123876300Y-135973622D01*
X123827000Y-127099654D01*
X123827000Y-120927000D01*
X128200000Y-120927000D01*
X128224776Y-120924560D01*
X128248601Y-120917333D01*
X128270557Y-120905597D01*
X128289803Y-120889803D01*
X128305597Y-120870557D01*
X128317333Y-120848601D01*
X128324560Y-120824776D01*
X128327000Y-120800000D01*
X128327000Y-116727000D01*
X129673000Y-116727000D01*
X129673000Y-125073000D01*
X127600000Y-125073000D01*
X127575224Y-125075440D01*
X127551399Y-125082667D01*
X127529443Y-125094403D01*
X127510197Y-125110197D01*
X127494403Y-125129443D01*
X127482667Y-125151399D01*
X127475440Y-125175224D01*
X127473000Y-125200000D01*
X127473000Y-132600000D01*
X127475440Y-132624776D01*
X127482667Y-132648601D01*
X127494403Y-132670557D01*
X127510197Y-132689803D01*
X127529443Y-132705597D01*
X127551399Y-132717333D01*
X127575224Y-132724560D01*
X127600300Y-132727000D01*
X148750300Y-132677000D01*
X148775071Y-132674501D01*
X148798878Y-132667217D01*
X148820807Y-132655430D01*
X148840015Y-132639590D01*
X148855763Y-132620308D01*
X148867447Y-132598323D01*
X148874618Y-132574482D01*
X148877000Y-132550000D01*
X148877000Y-109550427D01*
X148917205Y-109490256D01*
X148995226Y-109301898D01*
X149035000Y-109101939D01*
X149035000Y-108898061D01*
X148995226Y-108698102D01*
X148917205Y-108509744D01*
X148877000Y-108449573D01*
X148877000Y-105450000D01*
X148874560Y-105425224D01*
X148867333Y-105401399D01*
X148855597Y-105379443D01*
X148839803Y-105360197D01*
X148820557Y-105344403D01*
X148798601Y-105332667D01*
X148774776Y-105325440D01*
X148749093Y-105323003D01*
X141877000Y-105372089D01*
X141877000Y-104227000D01*
X150973000Y-104227000D01*
X150973000Y-128700000D01*
G37*
X150973000Y-128700000D02*
X150975440Y-128724776D01*
X150982667Y-128748601D01*
X150994403Y-128770557D01*
X151010197Y-128789803D01*
X151029443Y-128805597D01*
X151051399Y-128817333D01*
X151075224Y-128824560D01*
X151100000Y-128827000D01*
X164110917Y-128827000D01*
X164135080Y-136172370D01*
X123876300Y-135973622D01*
X123827000Y-127099654D01*
X123827000Y-120927000D01*
X128200000Y-120927000D01*
X128224776Y-120924560D01*
X128248601Y-120917333D01*
X128270557Y-120905597D01*
X128289803Y-120889803D01*
X128305597Y-120870557D01*
X128317333Y-120848601D01*
X128324560Y-120824776D01*
X128327000Y-120800000D01*
X128327000Y-116727000D01*
X129673000Y-116727000D01*
X129673000Y-125073000D01*
X127600000Y-125073000D01*
X127575224Y-125075440D01*
X127551399Y-125082667D01*
X127529443Y-125094403D01*
X127510197Y-125110197D01*
X127494403Y-125129443D01*
X127482667Y-125151399D01*
X127475440Y-125175224D01*
X127473000Y-125200000D01*
X127473000Y-132600000D01*
X127475440Y-132624776D01*
X127482667Y-132648601D01*
X127494403Y-132670557D01*
X127510197Y-132689803D01*
X127529443Y-132705597D01*
X127551399Y-132717333D01*
X127575224Y-132724560D01*
X127600300Y-132727000D01*
X148750300Y-132677000D01*
X148775071Y-132674501D01*
X148798878Y-132667217D01*
X148820807Y-132655430D01*
X148840015Y-132639590D01*
X148855763Y-132620308D01*
X148867447Y-132598323D01*
X148874618Y-132574482D01*
X148877000Y-132550000D01*
X148877000Y-109550427D01*
X148917205Y-109490256D01*
X148995226Y-109301898D01*
X149035000Y-109101939D01*
X149035000Y-108898061D01*
X148995226Y-108698102D01*
X148917205Y-108509744D01*
X148877000Y-108449573D01*
X148877000Y-105450000D01*
X148874560Y-105425224D01*
X148867333Y-105401399D01*
X148855597Y-105379443D01*
X148839803Y-105360197D01*
X148820557Y-105344403D01*
X148798601Y-105332667D01*
X148774776Y-105325440D01*
X148749093Y-105323003D01*
X141877000Y-105372089D01*
X141877000Y-104227000D01*
X150973000Y-104227000D01*
X150973000Y-128700000D01*
M02*
