M48
; DRILL file {KiCad (5.1.5)-3} date 16-Oct-21 16:50:25
; FORMAT={-:-/ absolute / metric / decimal}
; #@! TF.CreationDate,2021-10-16T16:50:25+02:00
; #@! TF.GenerationSoftware,Kicad,Pcbnew,(5.1.5)-3
; #@! TF.FileFunction,Plated,1,2,PTH
FMAT,2
METRIC
T1C0.400
T2C0.500
T3C1.000
T4C1.700
T5C4.000
%
G90
G05
T1
X115.5Y-85.5
X116.26Y-118.17
X116.8Y-97.0
X121.975Y-97.675
X122.0Y-101.3
X122.4Y-127.3
X122.4Y-129.6
X122.675Y-106.1
X122.72Y-123.4
X123.3Y-104.5
X124.2Y-114.2
X124.8Y-106.2
X124.8Y-112.0
X124.91Y-119.46
X125.165Y-126.25
X125.375Y-101.225
X125.475Y-95.85
X125.65Y-124.45
X125.8Y-107.25
X126.8Y-112.85
X126.9Y-119.42
X126.9Y-123.2
X127.077Y-111.4
X127.15Y-95.85
X127.15Y-101.175
X128.2Y-121.9
X128.4Y-106.575
X128.425Y-108.725
X128.915Y-117.705
X128.915Y-119.38
X129.24Y-126.22
X129.36Y-128.29
X129.64Y-130.48
X130.275Y-108.75
X130.35Y-106.725
X131.49Y-126.35
X131.68Y-128.32
X131.71Y-130.45
X132.4Y-110.6
X132.425Y-103.96
X133.59Y-130.45
X133.7Y-107.625
X133.81Y-128.41
X133.97Y-126.41
X134.5Y-122.25
X135.15Y-108.75
X135.41Y-104.79
X135.65Y-110.65
X137.15Y-104.92
X137.3Y-108.7
X137.5Y-125.0
X137.5Y-127.5
X137.5Y-130.0
X138.56Y-104.77
X139.6Y-107.8
X140.0Y-125.0
X140.0Y-127.5
X140.0Y-130.0
X141.0Y-122.5
X142.3Y-103.0
X142.3Y-104.75
X142.5Y-125.0
X142.5Y-127.5
X142.5Y-130.0
X144.7Y-108.75
X148.0Y-109.0
X152.4Y-108.3
X153.5Y-112.75
X153.5Y-113.975
X155.8Y-108.4
X157.5Y-108.5
X158.24Y-106.96
X160.0Y-110.75
X161.513Y-114.513
X161.753Y-105.406
X162.0Y-113.0
X162.638Y-111.388
X162.737Y-106.712
X165.25Y-114.0
X166.0Y-103.25
X166.5Y-105.825
X167.499Y-106.054
X167.5Y-103.25
X167.5Y-117.0
X167.75Y-125.0
X176.51Y-98.44
T3
X171.5Y-104.1
X171.5Y-106.64
X171.5Y-109.18
X139.16Y-95.6
X141.7Y-95.6
X144.24Y-95.6
X146.78Y-95.6
X149.32Y-95.6
X151.86Y-95.6
X154.4Y-95.6
X156.94Y-95.6
X159.48Y-95.6
X162.02Y-95.6
X164.56Y-95.6
X167.1Y-95.6
X169.64Y-95.6
X172.18Y-95.6
X174.72Y-95.6
X177.26Y-95.6
X163.09Y-130.25
X165.63Y-130.25
X168.17Y-130.25
X170.71Y-130.25
X173.25Y-130.25
T4
X114.54Y-124.205
X114.54Y-129.205
T5
X113.76Y-96.6
X113.76Y-136.6
X183.76Y-96.6
X183.76Y-136.6
T2
G00X112.39Y-113.405
M15
G01X111.69Y-113.405
M16
G05
G00X112.39Y-120.005
M15
G01X111.69Y-120.005
M16
G05
T0
M30
