G04 #@! TF.GenerationSoftware,KiCad,Pcbnew,(5.1.5)-3*
G04 #@! TF.CreationDate,2021-10-16T16:50:23+02:00*
G04 #@! TF.ProjectId,reader,72656164-6572-42e6-9b69-6361645f7063,rev?*
G04 #@! TF.SameCoordinates,Original*
G04 #@! TF.FileFunction,Soldermask,Bot*
G04 #@! TF.FilePolarity,Negative*
%FSLAX46Y46*%
G04 Gerber Fmt 4.6, Leading zero omitted, Abs format (unit mm)*
G04 Created by KiCad (PCBNEW (5.1.5)-3) date 2021-10-16 16:50:23*
%MOMM*%
%LPD*%
G04 APERTURE LIST*
%ADD10C,0.100000*%
G04 APERTURE END LIST*
D10*
G36*
X114208903Y-134343213D02*
G01*
X114431177Y-134387426D01*
X114849932Y-134560880D01*
X115226802Y-134812696D01*
X115547304Y-135133198D01*
X115799120Y-135510068D01*
X115972574Y-135928823D01*
X116061000Y-136373371D01*
X116061000Y-136826629D01*
X115972574Y-137271177D01*
X115799120Y-137689932D01*
X115547304Y-138066802D01*
X115226802Y-138387304D01*
X114849932Y-138639120D01*
X114431177Y-138812574D01*
X114208903Y-138856787D01*
X113986630Y-138901000D01*
X113533370Y-138901000D01*
X113311097Y-138856787D01*
X113088823Y-138812574D01*
X112670068Y-138639120D01*
X112293198Y-138387304D01*
X111972696Y-138066802D01*
X111720880Y-137689932D01*
X111547426Y-137271177D01*
X111459000Y-136826629D01*
X111459000Y-136373371D01*
X111547426Y-135928823D01*
X111720880Y-135510068D01*
X111972696Y-135133198D01*
X112293198Y-134812696D01*
X112670068Y-134560880D01*
X113088823Y-134387426D01*
X113311097Y-134343213D01*
X113533370Y-134299000D01*
X113986630Y-134299000D01*
X114208903Y-134343213D01*
G37*
G36*
X184208903Y-134343213D02*
G01*
X184431177Y-134387426D01*
X184849932Y-134560880D01*
X185226802Y-134812696D01*
X185547304Y-135133198D01*
X185799120Y-135510068D01*
X185972574Y-135928823D01*
X186061000Y-136373371D01*
X186061000Y-136826629D01*
X185972574Y-137271177D01*
X185799120Y-137689932D01*
X185547304Y-138066802D01*
X185226802Y-138387304D01*
X184849932Y-138639120D01*
X184431177Y-138812574D01*
X184208903Y-138856787D01*
X183986630Y-138901000D01*
X183533370Y-138901000D01*
X183311097Y-138856787D01*
X183088823Y-138812574D01*
X182670068Y-138639120D01*
X182293198Y-138387304D01*
X181972696Y-138066802D01*
X181720880Y-137689932D01*
X181547426Y-137271177D01*
X181459000Y-136826629D01*
X181459000Y-136373371D01*
X181547426Y-135928823D01*
X181720880Y-135510068D01*
X181972696Y-135133198D01*
X182293198Y-134812696D01*
X182670068Y-134560880D01*
X183088823Y-134387426D01*
X183311097Y-134343213D01*
X183533370Y-134299000D01*
X183986630Y-134299000D01*
X184208903Y-134343213D01*
G37*
G36*
X170823512Y-129353927D02*
G01*
X170972812Y-129383624D01*
X171136784Y-129451544D01*
X171284354Y-129550147D01*
X171409853Y-129675646D01*
X171508456Y-129823216D01*
X171576376Y-129987188D01*
X171611000Y-130161259D01*
X171611000Y-130338741D01*
X171576376Y-130512812D01*
X171508456Y-130676784D01*
X171409853Y-130824354D01*
X171284354Y-130949853D01*
X171136784Y-131048456D01*
X170972812Y-131116376D01*
X170823512Y-131146073D01*
X170798742Y-131151000D01*
X170621258Y-131151000D01*
X170596488Y-131146073D01*
X170447188Y-131116376D01*
X170283216Y-131048456D01*
X170135646Y-130949853D01*
X170010147Y-130824354D01*
X169911544Y-130676784D01*
X169843624Y-130512812D01*
X169809000Y-130338741D01*
X169809000Y-130161259D01*
X169843624Y-129987188D01*
X169911544Y-129823216D01*
X170010147Y-129675646D01*
X170135646Y-129550147D01*
X170283216Y-129451544D01*
X170447188Y-129383624D01*
X170596488Y-129353927D01*
X170621258Y-129349000D01*
X170798742Y-129349000D01*
X170823512Y-129353927D01*
G37*
G36*
X168283512Y-129353927D02*
G01*
X168432812Y-129383624D01*
X168596784Y-129451544D01*
X168744354Y-129550147D01*
X168869853Y-129675646D01*
X168968456Y-129823216D01*
X169036376Y-129987188D01*
X169071000Y-130161259D01*
X169071000Y-130338741D01*
X169036376Y-130512812D01*
X168968456Y-130676784D01*
X168869853Y-130824354D01*
X168744354Y-130949853D01*
X168596784Y-131048456D01*
X168432812Y-131116376D01*
X168283512Y-131146073D01*
X168258742Y-131151000D01*
X168081258Y-131151000D01*
X168056488Y-131146073D01*
X167907188Y-131116376D01*
X167743216Y-131048456D01*
X167595646Y-130949853D01*
X167470147Y-130824354D01*
X167371544Y-130676784D01*
X167303624Y-130512812D01*
X167269000Y-130338741D01*
X167269000Y-130161259D01*
X167303624Y-129987188D01*
X167371544Y-129823216D01*
X167470147Y-129675646D01*
X167595646Y-129550147D01*
X167743216Y-129451544D01*
X167907188Y-129383624D01*
X168056488Y-129353927D01*
X168081258Y-129349000D01*
X168258742Y-129349000D01*
X168283512Y-129353927D01*
G37*
G36*
X165743512Y-129353927D02*
G01*
X165892812Y-129383624D01*
X166056784Y-129451544D01*
X166204354Y-129550147D01*
X166329853Y-129675646D01*
X166428456Y-129823216D01*
X166496376Y-129987188D01*
X166531000Y-130161259D01*
X166531000Y-130338741D01*
X166496376Y-130512812D01*
X166428456Y-130676784D01*
X166329853Y-130824354D01*
X166204354Y-130949853D01*
X166056784Y-131048456D01*
X165892812Y-131116376D01*
X165743512Y-131146073D01*
X165718742Y-131151000D01*
X165541258Y-131151000D01*
X165516488Y-131146073D01*
X165367188Y-131116376D01*
X165203216Y-131048456D01*
X165055646Y-130949853D01*
X164930147Y-130824354D01*
X164831544Y-130676784D01*
X164763624Y-130512812D01*
X164729000Y-130338741D01*
X164729000Y-130161259D01*
X164763624Y-129987188D01*
X164831544Y-129823216D01*
X164930147Y-129675646D01*
X165055646Y-129550147D01*
X165203216Y-129451544D01*
X165367188Y-129383624D01*
X165516488Y-129353927D01*
X165541258Y-129349000D01*
X165718742Y-129349000D01*
X165743512Y-129353927D01*
G37*
G36*
X163203512Y-129353927D02*
G01*
X163352812Y-129383624D01*
X163516784Y-129451544D01*
X163664354Y-129550147D01*
X163789853Y-129675646D01*
X163888456Y-129823216D01*
X163956376Y-129987188D01*
X163991000Y-130161259D01*
X163991000Y-130338741D01*
X163956376Y-130512812D01*
X163888456Y-130676784D01*
X163789853Y-130824354D01*
X163664354Y-130949853D01*
X163516784Y-131048456D01*
X163352812Y-131116376D01*
X163203512Y-131146073D01*
X163178742Y-131151000D01*
X163001258Y-131151000D01*
X162976488Y-131146073D01*
X162827188Y-131116376D01*
X162663216Y-131048456D01*
X162515646Y-130949853D01*
X162390147Y-130824354D01*
X162291544Y-130676784D01*
X162223624Y-130512812D01*
X162189000Y-130338741D01*
X162189000Y-130161259D01*
X162223624Y-129987188D01*
X162291544Y-129823216D01*
X162390147Y-129675646D01*
X162515646Y-129550147D01*
X162663216Y-129451544D01*
X162827188Y-129383624D01*
X162976488Y-129353927D01*
X163001258Y-129349000D01*
X163178742Y-129349000D01*
X163203512Y-129353927D01*
G37*
G36*
X174151000Y-131151000D02*
G01*
X172349000Y-131151000D01*
X172349000Y-129349000D01*
X174151000Y-129349000D01*
X174151000Y-131151000D01*
G37*
G36*
X115814031Y-127807621D02*
G01*
X115843486Y-127816556D01*
X115870623Y-127831062D01*
X115894414Y-127850586D01*
X115913938Y-127874377D01*
X115928444Y-127901514D01*
X115937379Y-127930969D01*
X115941000Y-127967734D01*
X115941000Y-130442266D01*
X115937379Y-130479031D01*
X115928444Y-130508486D01*
X115913938Y-130535623D01*
X115894414Y-130559414D01*
X115870623Y-130578938D01*
X115843486Y-130593444D01*
X115814031Y-130602379D01*
X115777266Y-130606000D01*
X113302734Y-130606000D01*
X113265969Y-130602379D01*
X113236514Y-130593444D01*
X113209377Y-130578938D01*
X113185586Y-130559414D01*
X113166062Y-130535623D01*
X113151556Y-130508486D01*
X113142621Y-130479031D01*
X113139000Y-130442266D01*
X113139000Y-127967734D01*
X113142621Y-127930969D01*
X113151556Y-127901514D01*
X113166062Y-127874377D01*
X113185586Y-127850586D01*
X113209377Y-127831062D01*
X113236514Y-127816556D01*
X113265969Y-127807621D01*
X113302734Y-127804000D01*
X115777266Y-127804000D01*
X115814031Y-127807621D01*
G37*
G36*
X114858433Y-122839893D02*
G01*
X114948657Y-122857839D01*
X115054267Y-122901585D01*
X115203621Y-122963449D01*
X115203622Y-122963450D01*
X115433086Y-123116772D01*
X115628228Y-123311914D01*
X115730675Y-123465237D01*
X115781551Y-123541379D01*
X115887161Y-123796344D01*
X115941000Y-124067012D01*
X115941000Y-124342988D01*
X115887161Y-124613656D01*
X115781551Y-124868621D01*
X115781550Y-124868622D01*
X115628228Y-125098086D01*
X115433086Y-125293228D01*
X115279763Y-125395675D01*
X115203621Y-125446551D01*
X115054267Y-125508415D01*
X114948657Y-125552161D01*
X114858433Y-125570107D01*
X114677988Y-125606000D01*
X114402012Y-125606000D01*
X114221567Y-125570107D01*
X114131343Y-125552161D01*
X114025733Y-125508415D01*
X113876379Y-125446551D01*
X113800237Y-125395675D01*
X113646914Y-125293228D01*
X113451772Y-125098086D01*
X113298450Y-124868622D01*
X113298449Y-124868621D01*
X113192839Y-124613656D01*
X113139000Y-124342988D01*
X113139000Y-124067012D01*
X113192839Y-123796344D01*
X113298449Y-123541379D01*
X113349325Y-123465237D01*
X113451772Y-123311914D01*
X113646914Y-123116772D01*
X113876378Y-122963450D01*
X113876379Y-122963449D01*
X114025733Y-122901585D01*
X114131343Y-122857839D01*
X114221567Y-122839893D01*
X114402012Y-122804000D01*
X114677988Y-122804000D01*
X114858433Y-122839893D01*
G37*
G36*
X112488213Y-119511249D02*
G01*
X112582652Y-119539897D01*
X112669687Y-119586418D01*
X112745975Y-119649025D01*
X112808582Y-119725313D01*
X112855103Y-119812348D01*
X112883751Y-119906787D01*
X112893424Y-120005000D01*
X112883751Y-120103213D01*
X112855103Y-120197652D01*
X112808582Y-120284687D01*
X112745975Y-120360975D01*
X112669687Y-120423582D01*
X112582652Y-120470103D01*
X112488213Y-120498751D01*
X112414612Y-120506000D01*
X111665388Y-120506000D01*
X111591787Y-120498751D01*
X111497348Y-120470103D01*
X111410313Y-120423582D01*
X111334025Y-120360975D01*
X111271418Y-120284687D01*
X111224897Y-120197652D01*
X111196249Y-120103213D01*
X111186576Y-120005000D01*
X111196249Y-119906787D01*
X111224897Y-119812348D01*
X111271418Y-119725313D01*
X111334025Y-119649025D01*
X111410313Y-119586418D01*
X111497348Y-119539897D01*
X111591787Y-119511249D01*
X111665388Y-119504000D01*
X112414612Y-119504000D01*
X112488213Y-119511249D01*
G37*
G36*
X112488213Y-112911249D02*
G01*
X112582652Y-112939897D01*
X112669687Y-112986418D01*
X112745975Y-113049025D01*
X112808582Y-113125313D01*
X112855103Y-113212348D01*
X112883751Y-113306787D01*
X112893424Y-113405000D01*
X112883751Y-113503213D01*
X112855103Y-113597652D01*
X112808582Y-113684687D01*
X112745975Y-113760975D01*
X112669687Y-113823582D01*
X112582652Y-113870103D01*
X112488213Y-113898751D01*
X112414612Y-113906000D01*
X111665388Y-113906000D01*
X111591787Y-113898751D01*
X111497348Y-113870103D01*
X111410313Y-113823582D01*
X111334025Y-113760975D01*
X111271418Y-113684687D01*
X111224897Y-113597652D01*
X111196249Y-113503213D01*
X111186576Y-113405000D01*
X111196249Y-113306787D01*
X111224897Y-113212348D01*
X111271418Y-113125313D01*
X111334025Y-113049025D01*
X111410313Y-112986418D01*
X111497348Y-112939897D01*
X111591787Y-112911249D01*
X111665388Y-112904000D01*
X112414612Y-112904000D01*
X112488213Y-112911249D01*
G37*
G36*
X171613512Y-108283927D02*
G01*
X171762812Y-108313624D01*
X171926784Y-108381544D01*
X172074354Y-108480147D01*
X172199853Y-108605646D01*
X172298456Y-108753216D01*
X172366376Y-108917188D01*
X172401000Y-109091259D01*
X172401000Y-109268741D01*
X172366376Y-109442812D01*
X172298456Y-109606784D01*
X172199853Y-109754354D01*
X172074354Y-109879853D01*
X171926784Y-109978456D01*
X171762812Y-110046376D01*
X171613512Y-110076073D01*
X171588742Y-110081000D01*
X171411258Y-110081000D01*
X171386488Y-110076073D01*
X171237188Y-110046376D01*
X171073216Y-109978456D01*
X170925646Y-109879853D01*
X170800147Y-109754354D01*
X170701544Y-109606784D01*
X170633624Y-109442812D01*
X170599000Y-109268741D01*
X170599000Y-109091259D01*
X170633624Y-108917188D01*
X170701544Y-108753216D01*
X170800147Y-108605646D01*
X170925646Y-108480147D01*
X171073216Y-108381544D01*
X171237188Y-108313624D01*
X171386488Y-108283927D01*
X171411258Y-108279000D01*
X171588742Y-108279000D01*
X171613512Y-108283927D01*
G37*
G36*
X171613512Y-105743927D02*
G01*
X171762812Y-105773624D01*
X171926784Y-105841544D01*
X172074354Y-105940147D01*
X172199853Y-106065646D01*
X172298456Y-106213216D01*
X172366376Y-106377188D01*
X172401000Y-106551259D01*
X172401000Y-106728741D01*
X172366376Y-106902812D01*
X172298456Y-107066784D01*
X172199853Y-107214354D01*
X172074354Y-107339853D01*
X171926784Y-107438456D01*
X171762812Y-107506376D01*
X171613512Y-107536073D01*
X171588742Y-107541000D01*
X171411258Y-107541000D01*
X171386488Y-107536073D01*
X171237188Y-107506376D01*
X171073216Y-107438456D01*
X170925646Y-107339853D01*
X170800147Y-107214354D01*
X170701544Y-107066784D01*
X170633624Y-106902812D01*
X170599000Y-106728741D01*
X170599000Y-106551259D01*
X170633624Y-106377188D01*
X170701544Y-106213216D01*
X170800147Y-106065646D01*
X170925646Y-105940147D01*
X171073216Y-105841544D01*
X171237188Y-105773624D01*
X171386488Y-105743927D01*
X171411258Y-105739000D01*
X171588742Y-105739000D01*
X171613512Y-105743927D01*
G37*
G36*
X172401000Y-105001000D02*
G01*
X170599000Y-105001000D01*
X170599000Y-103199000D01*
X172401000Y-103199000D01*
X172401000Y-105001000D01*
G37*
G36*
X184208903Y-94343213D02*
G01*
X184431177Y-94387426D01*
X184849932Y-94560880D01*
X185226802Y-94812696D01*
X185547304Y-95133198D01*
X185799120Y-95510068D01*
X185972574Y-95928823D01*
X186061000Y-96373371D01*
X186061000Y-96826629D01*
X185972574Y-97271177D01*
X185799120Y-97689932D01*
X185547304Y-98066802D01*
X185226802Y-98387304D01*
X184849932Y-98639120D01*
X184431177Y-98812574D01*
X184208903Y-98856787D01*
X183986630Y-98901000D01*
X183533370Y-98901000D01*
X183311097Y-98856787D01*
X183088823Y-98812574D01*
X182670068Y-98639120D01*
X182293198Y-98387304D01*
X181972696Y-98066802D01*
X181720880Y-97689932D01*
X181547426Y-97271177D01*
X181459000Y-96826629D01*
X181459000Y-96373371D01*
X181547426Y-95928823D01*
X181720880Y-95510068D01*
X181972696Y-95133198D01*
X182293198Y-94812696D01*
X182670068Y-94560880D01*
X183088823Y-94387426D01*
X183311097Y-94343213D01*
X183533370Y-94299000D01*
X183986630Y-94299000D01*
X184208903Y-94343213D01*
G37*
G36*
X114208903Y-94343213D02*
G01*
X114431177Y-94387426D01*
X114849932Y-94560880D01*
X115226802Y-94812696D01*
X115547304Y-95133198D01*
X115799120Y-95510068D01*
X115972574Y-95928823D01*
X116061000Y-96373371D01*
X116061000Y-96826629D01*
X115972574Y-97271177D01*
X115799120Y-97689932D01*
X115547304Y-98066802D01*
X115226802Y-98387304D01*
X114849932Y-98639120D01*
X114431177Y-98812574D01*
X114208903Y-98856787D01*
X113986630Y-98901000D01*
X113533370Y-98901000D01*
X113311097Y-98856787D01*
X113088823Y-98812574D01*
X112670068Y-98639120D01*
X112293198Y-98387304D01*
X111972696Y-98066802D01*
X111720880Y-97689932D01*
X111547426Y-97271177D01*
X111459000Y-96826629D01*
X111459000Y-96373371D01*
X111547426Y-95928823D01*
X111720880Y-95510068D01*
X111972696Y-95133198D01*
X112293198Y-94812696D01*
X112670068Y-94560880D01*
X113088823Y-94387426D01*
X113311097Y-94343213D01*
X113533370Y-94299000D01*
X113986630Y-94299000D01*
X114208903Y-94343213D01*
G37*
G36*
X139466564Y-94589389D02*
G01*
X139657833Y-94668615D01*
X139657835Y-94668616D01*
X139829973Y-94783635D01*
X139976365Y-94930027D01*
X140091385Y-95102167D01*
X140170611Y-95293436D01*
X140211000Y-95496484D01*
X140211000Y-95703516D01*
X140170611Y-95906564D01*
X140091385Y-96097833D01*
X140091384Y-96097835D01*
X139976365Y-96269973D01*
X139829973Y-96416365D01*
X139657835Y-96531384D01*
X139657834Y-96531385D01*
X139657833Y-96531385D01*
X139466564Y-96610611D01*
X139263516Y-96651000D01*
X139056484Y-96651000D01*
X138853436Y-96610611D01*
X138662167Y-96531385D01*
X138662166Y-96531385D01*
X138662165Y-96531384D01*
X138490027Y-96416365D01*
X138343635Y-96269973D01*
X138228616Y-96097835D01*
X138228615Y-96097833D01*
X138149389Y-95906564D01*
X138109000Y-95703516D01*
X138109000Y-95496484D01*
X138149389Y-95293436D01*
X138228615Y-95102167D01*
X138343635Y-94930027D01*
X138490027Y-94783635D01*
X138662165Y-94668616D01*
X138662167Y-94668615D01*
X138853436Y-94589389D01*
X139056484Y-94549000D01*
X139263516Y-94549000D01*
X139466564Y-94589389D01*
G37*
G36*
X162326564Y-94589389D02*
G01*
X162517833Y-94668615D01*
X162517835Y-94668616D01*
X162689973Y-94783635D01*
X162836365Y-94930027D01*
X162951385Y-95102167D01*
X163030611Y-95293436D01*
X163071000Y-95496484D01*
X163071000Y-95703516D01*
X163030611Y-95906564D01*
X162951385Y-96097833D01*
X162951384Y-96097835D01*
X162836365Y-96269973D01*
X162689973Y-96416365D01*
X162517835Y-96531384D01*
X162517834Y-96531385D01*
X162517833Y-96531385D01*
X162326564Y-96610611D01*
X162123516Y-96651000D01*
X161916484Y-96651000D01*
X161713436Y-96610611D01*
X161522167Y-96531385D01*
X161522166Y-96531385D01*
X161522165Y-96531384D01*
X161350027Y-96416365D01*
X161203635Y-96269973D01*
X161088616Y-96097835D01*
X161088615Y-96097833D01*
X161009389Y-95906564D01*
X160969000Y-95703516D01*
X160969000Y-95496484D01*
X161009389Y-95293436D01*
X161088615Y-95102167D01*
X161203635Y-94930027D01*
X161350027Y-94783635D01*
X161522165Y-94668616D01*
X161522167Y-94668615D01*
X161713436Y-94589389D01*
X161916484Y-94549000D01*
X162123516Y-94549000D01*
X162326564Y-94589389D01*
G37*
G36*
X144546564Y-94589389D02*
G01*
X144737833Y-94668615D01*
X144737835Y-94668616D01*
X144909973Y-94783635D01*
X145056365Y-94930027D01*
X145171385Y-95102167D01*
X145250611Y-95293436D01*
X145291000Y-95496484D01*
X145291000Y-95703516D01*
X145250611Y-95906564D01*
X145171385Y-96097833D01*
X145171384Y-96097835D01*
X145056365Y-96269973D01*
X144909973Y-96416365D01*
X144737835Y-96531384D01*
X144737834Y-96531385D01*
X144737833Y-96531385D01*
X144546564Y-96610611D01*
X144343516Y-96651000D01*
X144136484Y-96651000D01*
X143933436Y-96610611D01*
X143742167Y-96531385D01*
X143742166Y-96531385D01*
X143742165Y-96531384D01*
X143570027Y-96416365D01*
X143423635Y-96269973D01*
X143308616Y-96097835D01*
X143308615Y-96097833D01*
X143229389Y-95906564D01*
X143189000Y-95703516D01*
X143189000Y-95496484D01*
X143229389Y-95293436D01*
X143308615Y-95102167D01*
X143423635Y-94930027D01*
X143570027Y-94783635D01*
X143742165Y-94668616D01*
X143742167Y-94668615D01*
X143933436Y-94589389D01*
X144136484Y-94549000D01*
X144343516Y-94549000D01*
X144546564Y-94589389D01*
G37*
G36*
X147086564Y-94589389D02*
G01*
X147277833Y-94668615D01*
X147277835Y-94668616D01*
X147449973Y-94783635D01*
X147596365Y-94930027D01*
X147711385Y-95102167D01*
X147790611Y-95293436D01*
X147831000Y-95496484D01*
X147831000Y-95703516D01*
X147790611Y-95906564D01*
X147711385Y-96097833D01*
X147711384Y-96097835D01*
X147596365Y-96269973D01*
X147449973Y-96416365D01*
X147277835Y-96531384D01*
X147277834Y-96531385D01*
X147277833Y-96531385D01*
X147086564Y-96610611D01*
X146883516Y-96651000D01*
X146676484Y-96651000D01*
X146473436Y-96610611D01*
X146282167Y-96531385D01*
X146282166Y-96531385D01*
X146282165Y-96531384D01*
X146110027Y-96416365D01*
X145963635Y-96269973D01*
X145848616Y-96097835D01*
X145848615Y-96097833D01*
X145769389Y-95906564D01*
X145729000Y-95703516D01*
X145729000Y-95496484D01*
X145769389Y-95293436D01*
X145848615Y-95102167D01*
X145963635Y-94930027D01*
X146110027Y-94783635D01*
X146282165Y-94668616D01*
X146282167Y-94668615D01*
X146473436Y-94589389D01*
X146676484Y-94549000D01*
X146883516Y-94549000D01*
X147086564Y-94589389D01*
G37*
G36*
X149626564Y-94589389D02*
G01*
X149817833Y-94668615D01*
X149817835Y-94668616D01*
X149989973Y-94783635D01*
X150136365Y-94930027D01*
X150251385Y-95102167D01*
X150330611Y-95293436D01*
X150371000Y-95496484D01*
X150371000Y-95703516D01*
X150330611Y-95906564D01*
X150251385Y-96097833D01*
X150251384Y-96097835D01*
X150136365Y-96269973D01*
X149989973Y-96416365D01*
X149817835Y-96531384D01*
X149817834Y-96531385D01*
X149817833Y-96531385D01*
X149626564Y-96610611D01*
X149423516Y-96651000D01*
X149216484Y-96651000D01*
X149013436Y-96610611D01*
X148822167Y-96531385D01*
X148822166Y-96531385D01*
X148822165Y-96531384D01*
X148650027Y-96416365D01*
X148503635Y-96269973D01*
X148388616Y-96097835D01*
X148388615Y-96097833D01*
X148309389Y-95906564D01*
X148269000Y-95703516D01*
X148269000Y-95496484D01*
X148309389Y-95293436D01*
X148388615Y-95102167D01*
X148503635Y-94930027D01*
X148650027Y-94783635D01*
X148822165Y-94668616D01*
X148822167Y-94668615D01*
X149013436Y-94589389D01*
X149216484Y-94549000D01*
X149423516Y-94549000D01*
X149626564Y-94589389D01*
G37*
G36*
X152166564Y-94589389D02*
G01*
X152357833Y-94668615D01*
X152357835Y-94668616D01*
X152529973Y-94783635D01*
X152676365Y-94930027D01*
X152791385Y-95102167D01*
X152870611Y-95293436D01*
X152911000Y-95496484D01*
X152911000Y-95703516D01*
X152870611Y-95906564D01*
X152791385Y-96097833D01*
X152791384Y-96097835D01*
X152676365Y-96269973D01*
X152529973Y-96416365D01*
X152357835Y-96531384D01*
X152357834Y-96531385D01*
X152357833Y-96531385D01*
X152166564Y-96610611D01*
X151963516Y-96651000D01*
X151756484Y-96651000D01*
X151553436Y-96610611D01*
X151362167Y-96531385D01*
X151362166Y-96531385D01*
X151362165Y-96531384D01*
X151190027Y-96416365D01*
X151043635Y-96269973D01*
X150928616Y-96097835D01*
X150928615Y-96097833D01*
X150849389Y-95906564D01*
X150809000Y-95703516D01*
X150809000Y-95496484D01*
X150849389Y-95293436D01*
X150928615Y-95102167D01*
X151043635Y-94930027D01*
X151190027Y-94783635D01*
X151362165Y-94668616D01*
X151362167Y-94668615D01*
X151553436Y-94589389D01*
X151756484Y-94549000D01*
X151963516Y-94549000D01*
X152166564Y-94589389D01*
G37*
G36*
X154706564Y-94589389D02*
G01*
X154897833Y-94668615D01*
X154897835Y-94668616D01*
X155069973Y-94783635D01*
X155216365Y-94930027D01*
X155331385Y-95102167D01*
X155410611Y-95293436D01*
X155451000Y-95496484D01*
X155451000Y-95703516D01*
X155410611Y-95906564D01*
X155331385Y-96097833D01*
X155331384Y-96097835D01*
X155216365Y-96269973D01*
X155069973Y-96416365D01*
X154897835Y-96531384D01*
X154897834Y-96531385D01*
X154897833Y-96531385D01*
X154706564Y-96610611D01*
X154503516Y-96651000D01*
X154296484Y-96651000D01*
X154093436Y-96610611D01*
X153902167Y-96531385D01*
X153902166Y-96531385D01*
X153902165Y-96531384D01*
X153730027Y-96416365D01*
X153583635Y-96269973D01*
X153468616Y-96097835D01*
X153468615Y-96097833D01*
X153389389Y-95906564D01*
X153349000Y-95703516D01*
X153349000Y-95496484D01*
X153389389Y-95293436D01*
X153468615Y-95102167D01*
X153583635Y-94930027D01*
X153730027Y-94783635D01*
X153902165Y-94668616D01*
X153902167Y-94668615D01*
X154093436Y-94589389D01*
X154296484Y-94549000D01*
X154503516Y-94549000D01*
X154706564Y-94589389D01*
G37*
G36*
X157246564Y-94589389D02*
G01*
X157437833Y-94668615D01*
X157437835Y-94668616D01*
X157609973Y-94783635D01*
X157756365Y-94930027D01*
X157871385Y-95102167D01*
X157950611Y-95293436D01*
X157991000Y-95496484D01*
X157991000Y-95703516D01*
X157950611Y-95906564D01*
X157871385Y-96097833D01*
X157871384Y-96097835D01*
X157756365Y-96269973D01*
X157609973Y-96416365D01*
X157437835Y-96531384D01*
X157437834Y-96531385D01*
X157437833Y-96531385D01*
X157246564Y-96610611D01*
X157043516Y-96651000D01*
X156836484Y-96651000D01*
X156633436Y-96610611D01*
X156442167Y-96531385D01*
X156442166Y-96531385D01*
X156442165Y-96531384D01*
X156270027Y-96416365D01*
X156123635Y-96269973D01*
X156008616Y-96097835D01*
X156008615Y-96097833D01*
X155929389Y-95906564D01*
X155889000Y-95703516D01*
X155889000Y-95496484D01*
X155929389Y-95293436D01*
X156008615Y-95102167D01*
X156123635Y-94930027D01*
X156270027Y-94783635D01*
X156442165Y-94668616D01*
X156442167Y-94668615D01*
X156633436Y-94589389D01*
X156836484Y-94549000D01*
X157043516Y-94549000D01*
X157246564Y-94589389D01*
G37*
G36*
X159786564Y-94589389D02*
G01*
X159977833Y-94668615D01*
X159977835Y-94668616D01*
X160149973Y-94783635D01*
X160296365Y-94930027D01*
X160411385Y-95102167D01*
X160490611Y-95293436D01*
X160531000Y-95496484D01*
X160531000Y-95703516D01*
X160490611Y-95906564D01*
X160411385Y-96097833D01*
X160411384Y-96097835D01*
X160296365Y-96269973D01*
X160149973Y-96416365D01*
X159977835Y-96531384D01*
X159977834Y-96531385D01*
X159977833Y-96531385D01*
X159786564Y-96610611D01*
X159583516Y-96651000D01*
X159376484Y-96651000D01*
X159173436Y-96610611D01*
X158982167Y-96531385D01*
X158982166Y-96531385D01*
X158982165Y-96531384D01*
X158810027Y-96416365D01*
X158663635Y-96269973D01*
X158548616Y-96097835D01*
X158548615Y-96097833D01*
X158469389Y-95906564D01*
X158429000Y-95703516D01*
X158429000Y-95496484D01*
X158469389Y-95293436D01*
X158548615Y-95102167D01*
X158663635Y-94930027D01*
X158810027Y-94783635D01*
X158982165Y-94668616D01*
X158982167Y-94668615D01*
X159173436Y-94589389D01*
X159376484Y-94549000D01*
X159583516Y-94549000D01*
X159786564Y-94589389D01*
G37*
G36*
X142006564Y-94589389D02*
G01*
X142197833Y-94668615D01*
X142197835Y-94668616D01*
X142369973Y-94783635D01*
X142516365Y-94930027D01*
X142631385Y-95102167D01*
X142710611Y-95293436D01*
X142751000Y-95496484D01*
X142751000Y-95703516D01*
X142710611Y-95906564D01*
X142631385Y-96097833D01*
X142631384Y-96097835D01*
X142516365Y-96269973D01*
X142369973Y-96416365D01*
X142197835Y-96531384D01*
X142197834Y-96531385D01*
X142197833Y-96531385D01*
X142006564Y-96610611D01*
X141803516Y-96651000D01*
X141596484Y-96651000D01*
X141393436Y-96610611D01*
X141202167Y-96531385D01*
X141202166Y-96531385D01*
X141202165Y-96531384D01*
X141030027Y-96416365D01*
X140883635Y-96269973D01*
X140768616Y-96097835D01*
X140768615Y-96097833D01*
X140689389Y-95906564D01*
X140649000Y-95703516D01*
X140649000Y-95496484D01*
X140689389Y-95293436D01*
X140768615Y-95102167D01*
X140883635Y-94930027D01*
X141030027Y-94783635D01*
X141202165Y-94668616D01*
X141202167Y-94668615D01*
X141393436Y-94589389D01*
X141596484Y-94549000D01*
X141803516Y-94549000D01*
X142006564Y-94589389D01*
G37*
G36*
X177566564Y-94589389D02*
G01*
X177757833Y-94668615D01*
X177757835Y-94668616D01*
X177929973Y-94783635D01*
X178076365Y-94930027D01*
X178191385Y-95102167D01*
X178270611Y-95293436D01*
X178311000Y-95496484D01*
X178311000Y-95703516D01*
X178270611Y-95906564D01*
X178191385Y-96097833D01*
X178191384Y-96097835D01*
X178076365Y-96269973D01*
X177929973Y-96416365D01*
X177757835Y-96531384D01*
X177757834Y-96531385D01*
X177757833Y-96531385D01*
X177566564Y-96610611D01*
X177363516Y-96651000D01*
X177156484Y-96651000D01*
X176953436Y-96610611D01*
X176762167Y-96531385D01*
X176762166Y-96531385D01*
X176762165Y-96531384D01*
X176590027Y-96416365D01*
X176443635Y-96269973D01*
X176328616Y-96097835D01*
X176328615Y-96097833D01*
X176249389Y-95906564D01*
X176209000Y-95703516D01*
X176209000Y-95496484D01*
X176249389Y-95293436D01*
X176328615Y-95102167D01*
X176443635Y-94930027D01*
X176590027Y-94783635D01*
X176762165Y-94668616D01*
X176762167Y-94668615D01*
X176953436Y-94589389D01*
X177156484Y-94549000D01*
X177363516Y-94549000D01*
X177566564Y-94589389D01*
G37*
G36*
X175026564Y-94589389D02*
G01*
X175217833Y-94668615D01*
X175217835Y-94668616D01*
X175389973Y-94783635D01*
X175536365Y-94930027D01*
X175651385Y-95102167D01*
X175730611Y-95293436D01*
X175771000Y-95496484D01*
X175771000Y-95703516D01*
X175730611Y-95906564D01*
X175651385Y-96097833D01*
X175651384Y-96097835D01*
X175536365Y-96269973D01*
X175389973Y-96416365D01*
X175217835Y-96531384D01*
X175217834Y-96531385D01*
X175217833Y-96531385D01*
X175026564Y-96610611D01*
X174823516Y-96651000D01*
X174616484Y-96651000D01*
X174413436Y-96610611D01*
X174222167Y-96531385D01*
X174222166Y-96531385D01*
X174222165Y-96531384D01*
X174050027Y-96416365D01*
X173903635Y-96269973D01*
X173788616Y-96097835D01*
X173788615Y-96097833D01*
X173709389Y-95906564D01*
X173669000Y-95703516D01*
X173669000Y-95496484D01*
X173709389Y-95293436D01*
X173788615Y-95102167D01*
X173903635Y-94930027D01*
X174050027Y-94783635D01*
X174222165Y-94668616D01*
X174222167Y-94668615D01*
X174413436Y-94589389D01*
X174616484Y-94549000D01*
X174823516Y-94549000D01*
X175026564Y-94589389D01*
G37*
G36*
X172486564Y-94589389D02*
G01*
X172677833Y-94668615D01*
X172677835Y-94668616D01*
X172849973Y-94783635D01*
X172996365Y-94930027D01*
X173111385Y-95102167D01*
X173190611Y-95293436D01*
X173231000Y-95496484D01*
X173231000Y-95703516D01*
X173190611Y-95906564D01*
X173111385Y-96097833D01*
X173111384Y-96097835D01*
X172996365Y-96269973D01*
X172849973Y-96416365D01*
X172677835Y-96531384D01*
X172677834Y-96531385D01*
X172677833Y-96531385D01*
X172486564Y-96610611D01*
X172283516Y-96651000D01*
X172076484Y-96651000D01*
X171873436Y-96610611D01*
X171682167Y-96531385D01*
X171682166Y-96531385D01*
X171682165Y-96531384D01*
X171510027Y-96416365D01*
X171363635Y-96269973D01*
X171248616Y-96097835D01*
X171248615Y-96097833D01*
X171169389Y-95906564D01*
X171129000Y-95703516D01*
X171129000Y-95496484D01*
X171169389Y-95293436D01*
X171248615Y-95102167D01*
X171363635Y-94930027D01*
X171510027Y-94783635D01*
X171682165Y-94668616D01*
X171682167Y-94668615D01*
X171873436Y-94589389D01*
X172076484Y-94549000D01*
X172283516Y-94549000D01*
X172486564Y-94589389D01*
G37*
G36*
X167406564Y-94589389D02*
G01*
X167597833Y-94668615D01*
X167597835Y-94668616D01*
X167769973Y-94783635D01*
X167916365Y-94930027D01*
X168031385Y-95102167D01*
X168110611Y-95293436D01*
X168151000Y-95496484D01*
X168151000Y-95703516D01*
X168110611Y-95906564D01*
X168031385Y-96097833D01*
X168031384Y-96097835D01*
X167916365Y-96269973D01*
X167769973Y-96416365D01*
X167597835Y-96531384D01*
X167597834Y-96531385D01*
X167597833Y-96531385D01*
X167406564Y-96610611D01*
X167203516Y-96651000D01*
X166996484Y-96651000D01*
X166793436Y-96610611D01*
X166602167Y-96531385D01*
X166602166Y-96531385D01*
X166602165Y-96531384D01*
X166430027Y-96416365D01*
X166283635Y-96269973D01*
X166168616Y-96097835D01*
X166168615Y-96097833D01*
X166089389Y-95906564D01*
X166049000Y-95703516D01*
X166049000Y-95496484D01*
X166089389Y-95293436D01*
X166168615Y-95102167D01*
X166283635Y-94930027D01*
X166430027Y-94783635D01*
X166602165Y-94668616D01*
X166602167Y-94668615D01*
X166793436Y-94589389D01*
X166996484Y-94549000D01*
X167203516Y-94549000D01*
X167406564Y-94589389D01*
G37*
G36*
X164866564Y-94589389D02*
G01*
X165057833Y-94668615D01*
X165057835Y-94668616D01*
X165229973Y-94783635D01*
X165376365Y-94930027D01*
X165491385Y-95102167D01*
X165570611Y-95293436D01*
X165611000Y-95496484D01*
X165611000Y-95703516D01*
X165570611Y-95906564D01*
X165491385Y-96097833D01*
X165491384Y-96097835D01*
X165376365Y-96269973D01*
X165229973Y-96416365D01*
X165057835Y-96531384D01*
X165057834Y-96531385D01*
X165057833Y-96531385D01*
X164866564Y-96610611D01*
X164663516Y-96651000D01*
X164456484Y-96651000D01*
X164253436Y-96610611D01*
X164062167Y-96531385D01*
X164062166Y-96531385D01*
X164062165Y-96531384D01*
X163890027Y-96416365D01*
X163743635Y-96269973D01*
X163628616Y-96097835D01*
X163628615Y-96097833D01*
X163549389Y-95906564D01*
X163509000Y-95703516D01*
X163509000Y-95496484D01*
X163549389Y-95293436D01*
X163628615Y-95102167D01*
X163743635Y-94930027D01*
X163890027Y-94783635D01*
X164062165Y-94668616D01*
X164062167Y-94668615D01*
X164253436Y-94589389D01*
X164456484Y-94549000D01*
X164663516Y-94549000D01*
X164866564Y-94589389D01*
G37*
G36*
X169946564Y-94589389D02*
G01*
X170137833Y-94668615D01*
X170137835Y-94668616D01*
X170309973Y-94783635D01*
X170456365Y-94930027D01*
X170571385Y-95102167D01*
X170650611Y-95293436D01*
X170691000Y-95496484D01*
X170691000Y-95703516D01*
X170650611Y-95906564D01*
X170571385Y-96097833D01*
X170571384Y-96097835D01*
X170456365Y-96269973D01*
X170309973Y-96416365D01*
X170137835Y-96531384D01*
X170137834Y-96531385D01*
X170137833Y-96531385D01*
X169946564Y-96610611D01*
X169743516Y-96651000D01*
X169536484Y-96651000D01*
X169333436Y-96610611D01*
X169142167Y-96531385D01*
X169142166Y-96531385D01*
X169142165Y-96531384D01*
X168970027Y-96416365D01*
X168823635Y-96269973D01*
X168708616Y-96097835D01*
X168708615Y-96097833D01*
X168629389Y-95906564D01*
X168589000Y-95703516D01*
X168589000Y-95496484D01*
X168629389Y-95293436D01*
X168708615Y-95102167D01*
X168823635Y-94930027D01*
X168970027Y-94783635D01*
X169142165Y-94668616D01*
X169142167Y-94668615D01*
X169333436Y-94589389D01*
X169536484Y-94549000D01*
X169743516Y-94549000D01*
X169946564Y-94589389D01*
G37*
G36*
X112551000Y-91051000D02*
G01*
X111449000Y-91051000D01*
X111449000Y-89949000D01*
X112551000Y-89949000D01*
X112551000Y-91051000D01*
G37*
G36*
X115951000Y-85951000D02*
G01*
X114849000Y-85951000D01*
X114849000Y-84849000D01*
X115951000Y-84849000D01*
X115951000Y-85951000D01*
G37*
M02*
