G04 #@! TF.GenerationSoftware,KiCad,Pcbnew,(5.1.5)-3*
G04 #@! TF.CreationDate,2021-10-16T16:50:23+02:00*
G04 #@! TF.ProjectId,reader,72656164-6572-42e6-9b69-6361645f7063,rev?*
G04 #@! TF.SameCoordinates,Original*
G04 #@! TF.FileFunction,Legend,Bot*
G04 #@! TF.FilePolarity,Positive*
%FSLAX46Y46*%
G04 Gerber Fmt 4.6, Leading zero omitted, Abs format (unit mm)*
G04 Created by KiCad (PCBNEW (5.1.5)-3) date 2021-10-16 16:50:23*
%MOMM*%
%LPD*%
G04 APERTURE LIST*
%ADD10C,0.300000*%
%ADD11C,0.500000*%
G04 APERTURE END LIST*
D10*
X160800000Y-73804761D02*
X160800000Y-71804761D01*
X160133333Y-73233333D01*
X159466666Y-71804761D01*
X159466666Y-73804761D01*
X158228571Y-73804761D02*
X158419047Y-73709523D01*
X158514285Y-73614285D01*
X158609523Y-73423809D01*
X158609523Y-72852380D01*
X158514285Y-72661904D01*
X158419047Y-72566666D01*
X158228571Y-72471428D01*
X157942857Y-72471428D01*
X157752380Y-72566666D01*
X157657142Y-72661904D01*
X157561904Y-72852380D01*
X157561904Y-73423809D01*
X157657142Y-73614285D01*
X157752380Y-73709523D01*
X157942857Y-73804761D01*
X158228571Y-73804761D01*
X156704761Y-72471428D02*
X156704761Y-73804761D01*
X156704761Y-72661904D02*
X156609523Y-72566666D01*
X156419047Y-72471428D01*
X156133333Y-72471428D01*
X155942857Y-72566666D01*
X155847619Y-72757142D01*
X155847619Y-73804761D01*
X154609523Y-73804761D02*
X154800000Y-73709523D01*
X154895238Y-73614285D01*
X154990476Y-73423809D01*
X154990476Y-72852380D01*
X154895238Y-72661904D01*
X154800000Y-72566666D01*
X154609523Y-72471428D01*
X154323809Y-72471428D01*
X154133333Y-72566666D01*
X154038095Y-72661904D01*
X153942857Y-72852380D01*
X153942857Y-73423809D01*
X154038095Y-73614285D01*
X154133333Y-73709523D01*
X154323809Y-73804761D01*
X154609523Y-73804761D01*
X153085714Y-72471428D02*
X153085714Y-74471428D01*
X153085714Y-72566666D02*
X152895238Y-72471428D01*
X152514285Y-72471428D01*
X152323809Y-72566666D01*
X152228571Y-72661904D01*
X152133333Y-72852380D01*
X152133333Y-73423809D01*
X152228571Y-73614285D01*
X152323809Y-73709523D01*
X152514285Y-73804761D01*
X152895238Y-73804761D01*
X153085714Y-73709523D01*
X150990476Y-73804761D02*
X151180952Y-73709523D01*
X151276190Y-73614285D01*
X151371428Y-73423809D01*
X151371428Y-72852380D01*
X151276190Y-72661904D01*
X151180952Y-72566666D01*
X150990476Y-72471428D01*
X150704761Y-72471428D01*
X150514285Y-72566666D01*
X150419047Y-72661904D01*
X150323809Y-72852380D01*
X150323809Y-73423809D01*
X150419047Y-73614285D01*
X150514285Y-73709523D01*
X150704761Y-73804761D01*
X150990476Y-73804761D01*
X149180952Y-73804761D02*
X149371428Y-73709523D01*
X149466666Y-73519047D01*
X149466666Y-71804761D01*
X148609523Y-72471428D02*
X148133333Y-73804761D01*
X147657142Y-72471428D02*
X148133333Y-73804761D01*
X148323809Y-74280952D01*
X148419047Y-74376190D01*
X148609523Y-74471428D01*
X145371428Y-73804761D02*
X145371428Y-72471428D01*
X145371428Y-72852380D02*
X145276190Y-72661904D01*
X145180952Y-72566666D01*
X144990476Y-72471428D01*
X144800000Y-72471428D01*
X143371428Y-73709523D02*
X143561904Y-73804761D01*
X143942857Y-73804761D01*
X144133333Y-73709523D01*
X144228571Y-73519047D01*
X144228571Y-72757142D01*
X144133333Y-72566666D01*
X143942857Y-72471428D01*
X143561904Y-72471428D01*
X143371428Y-72566666D01*
X143276190Y-72757142D01*
X143276190Y-72947619D01*
X144228571Y-73138095D01*
X141561904Y-73804761D02*
X141561904Y-72757142D01*
X141657142Y-72566666D01*
X141847619Y-72471428D01*
X142228571Y-72471428D01*
X142419047Y-72566666D01*
X141561904Y-73709523D02*
X141752380Y-73804761D01*
X142228571Y-73804761D01*
X142419047Y-73709523D01*
X142514285Y-73519047D01*
X142514285Y-73328571D01*
X142419047Y-73138095D01*
X142228571Y-73042857D01*
X141752380Y-73042857D01*
X141561904Y-72947619D01*
X139752380Y-73804761D02*
X139752380Y-71804761D01*
X139752380Y-73709523D02*
X139942857Y-73804761D01*
X140323809Y-73804761D01*
X140514285Y-73709523D01*
X140609523Y-73614285D01*
X140704761Y-73423809D01*
X140704761Y-72852380D01*
X140609523Y-72661904D01*
X140514285Y-72566666D01*
X140323809Y-72471428D01*
X139942857Y-72471428D01*
X139752380Y-72566666D01*
X138038095Y-73709523D02*
X138228571Y-73804761D01*
X138609523Y-73804761D01*
X138800000Y-73709523D01*
X138895238Y-73519047D01*
X138895238Y-72757142D01*
X138800000Y-72566666D01*
X138609523Y-72471428D01*
X138228571Y-72471428D01*
X138038095Y-72566666D01*
X137942857Y-72757142D01*
X137942857Y-72947619D01*
X138895238Y-73138095D01*
X137085714Y-73804761D02*
X137085714Y-72471428D01*
X137085714Y-72852380D02*
X136990476Y-72661904D01*
X136895238Y-72566666D01*
X136704761Y-72471428D01*
X136514285Y-72471428D01*
X161085714Y-76533333D02*
X160133333Y-76533333D01*
X161276190Y-77104761D02*
X160609523Y-75104761D01*
X159942857Y-77104761D01*
X159276190Y-75771428D02*
X159276190Y-77104761D01*
X159276190Y-75961904D02*
X159180952Y-75866666D01*
X158990476Y-75771428D01*
X158704761Y-75771428D01*
X158514285Y-75866666D01*
X158419047Y-76057142D01*
X158419047Y-77104761D01*
X157752380Y-75771428D02*
X156990476Y-75771428D01*
X157466666Y-75104761D02*
X157466666Y-76819047D01*
X157371428Y-77009523D01*
X157180952Y-77104761D01*
X156990476Y-77104761D01*
X156038095Y-77104761D02*
X156228571Y-77009523D01*
X156323809Y-76914285D01*
X156419047Y-76723809D01*
X156419047Y-76152380D01*
X156323809Y-75961904D01*
X156228571Y-75866666D01*
X156038095Y-75771428D01*
X155752380Y-75771428D01*
X155561904Y-75866666D01*
X155466666Y-75961904D01*
X155371428Y-76152380D01*
X155371428Y-76723809D01*
X155466666Y-76914285D01*
X155561904Y-77009523D01*
X155752380Y-77104761D01*
X156038095Y-77104761D01*
X154514285Y-75771428D02*
X154514285Y-77104761D01*
X154514285Y-75961904D02*
X154419047Y-75866666D01*
X154228571Y-75771428D01*
X153942857Y-75771428D01*
X153752380Y-75866666D01*
X153657142Y-76057142D01*
X153657142Y-77104761D01*
X150228571Y-77104761D02*
X151180952Y-77104761D01*
X151180952Y-75104761D01*
X149276190Y-77104761D02*
X149466666Y-77009523D01*
X149561904Y-76914285D01*
X149657142Y-76723809D01*
X149657142Y-76152380D01*
X149561904Y-75961904D01*
X149466666Y-75866666D01*
X149276190Y-75771428D01*
X148990476Y-75771428D01*
X148800000Y-75866666D01*
X148704761Y-75961904D01*
X148609523Y-76152380D01*
X148609523Y-76723809D01*
X148704761Y-76914285D01*
X148800000Y-77009523D01*
X148990476Y-77104761D01*
X149276190Y-77104761D01*
X149466666Y-75104761D02*
X149371428Y-75200000D01*
X149466666Y-75295238D01*
X149561904Y-75200000D01*
X149466666Y-75104761D01*
X149466666Y-75295238D01*
X148704761Y-75104761D02*
X148609523Y-75200000D01*
X148704761Y-75295238D01*
X148800000Y-75200000D01*
X148704761Y-75104761D01*
X148704761Y-75295238D01*
X147466666Y-77104761D02*
X147657142Y-77009523D01*
X147752380Y-76914285D01*
X147847619Y-76723809D01*
X147847619Y-76152380D01*
X147752380Y-75961904D01*
X147657142Y-75866666D01*
X147466666Y-75771428D01*
X147180952Y-75771428D01*
X146990476Y-75866666D01*
X146895238Y-75961904D01*
X146800000Y-76152380D01*
X146800000Y-76723809D01*
X146895238Y-76914285D01*
X146990476Y-77009523D01*
X147180952Y-77104761D01*
X147466666Y-77104761D01*
X147657142Y-75104761D02*
X147561904Y-75200000D01*
X147657142Y-75295238D01*
X147752380Y-75200000D01*
X147657142Y-75104761D01*
X147657142Y-75295238D01*
X146895238Y-75104761D02*
X146800000Y-75200000D01*
X146895238Y-75295238D01*
X146990476Y-75200000D01*
X146895238Y-75104761D01*
X146895238Y-75295238D01*
X146228571Y-75771428D02*
X145466666Y-75771428D01*
X145942857Y-77104761D02*
X145942857Y-75390476D01*
X145847619Y-75200000D01*
X145657142Y-75104761D01*
X145466666Y-75104761D01*
X143371428Y-75295238D02*
X143276190Y-75200000D01*
X143085714Y-75104761D01*
X142609523Y-75104761D01*
X142419047Y-75200000D01*
X142323809Y-75295238D01*
X142228571Y-75485714D01*
X142228571Y-75676190D01*
X142323809Y-75961904D01*
X143466666Y-77104761D01*
X142228571Y-77104761D01*
X140990476Y-75104761D02*
X140800000Y-75104761D01*
X140609523Y-75200000D01*
X140514285Y-75295238D01*
X140419047Y-75485714D01*
X140323809Y-75866666D01*
X140323809Y-76342857D01*
X140419047Y-76723809D01*
X140514285Y-76914285D01*
X140609523Y-77009523D01*
X140800000Y-77104761D01*
X140990476Y-77104761D01*
X141180952Y-77009523D01*
X141276190Y-76914285D01*
X141371428Y-76723809D01*
X141466666Y-76342857D01*
X141466666Y-75866666D01*
X141371428Y-75485714D01*
X141276190Y-75295238D01*
X141180952Y-75200000D01*
X140990476Y-75104761D01*
X139561904Y-75295238D02*
X139466666Y-75200000D01*
X139276190Y-75104761D01*
X138800000Y-75104761D01*
X138609523Y-75200000D01*
X138514285Y-75295238D01*
X138419047Y-75485714D01*
X138419047Y-75676190D01*
X138514285Y-75961904D01*
X139657142Y-77104761D01*
X138419047Y-77104761D01*
X136514285Y-77104761D02*
X137657142Y-77104761D01*
X137085714Y-77104761D02*
X137085714Y-75104761D01*
X137276190Y-75390476D01*
X137466666Y-75580952D01*
X137657142Y-75676190D01*
X150752380Y-80404761D02*
X151419047Y-79452380D01*
X151895238Y-80404761D02*
X151895238Y-78404761D01*
X151133333Y-78404761D01*
X150942857Y-78500000D01*
X150847619Y-78595238D01*
X150752380Y-78785714D01*
X150752380Y-79071428D01*
X150847619Y-79261904D01*
X150942857Y-79357142D01*
X151133333Y-79452380D01*
X151895238Y-79452380D01*
X149133333Y-80309523D02*
X149323809Y-80404761D01*
X149704761Y-80404761D01*
X149895238Y-80309523D01*
X149990476Y-80119047D01*
X149990476Y-79357142D01*
X149895238Y-79166666D01*
X149704761Y-79071428D01*
X149323809Y-79071428D01*
X149133333Y-79166666D01*
X149038095Y-79357142D01*
X149038095Y-79547619D01*
X149990476Y-79738095D01*
X148371428Y-79071428D02*
X147895238Y-80404761D01*
X147419047Y-79071428D01*
X145609523Y-80404761D02*
X146752380Y-80404761D01*
X146180952Y-80404761D02*
X146180952Y-78404761D01*
X146371428Y-78690476D01*
X146561904Y-78880952D01*
X146752380Y-78976190D01*
D11*
X123382142Y-122800000D02*
X123667857Y-122657142D01*
X124096428Y-122657142D01*
X124525000Y-122800000D01*
X124810714Y-123085714D01*
X124953571Y-123371428D01*
X125096428Y-123942857D01*
X125096428Y-124371428D01*
X124953571Y-124942857D01*
X124810714Y-125228571D01*
X124525000Y-125514285D01*
X124096428Y-125657142D01*
X123810714Y-125657142D01*
X123382142Y-125514285D01*
X123239285Y-125371428D01*
X123239285Y-124371428D01*
X123810714Y-124371428D01*
X121953571Y-125657142D02*
X121953571Y-122657142D01*
X120239285Y-125657142D01*
X120239285Y-122657142D01*
X118810714Y-125657142D02*
X118810714Y-122657142D01*
X118096428Y-122657142D01*
X117667857Y-122800000D01*
X117382142Y-123085714D01*
X117239285Y-123371428D01*
X117096428Y-123942857D01*
X117096428Y-124371428D01*
X117239285Y-124942857D01*
X117382142Y-125228571D01*
X117667857Y-125514285D01*
X118096428Y-125657142D01*
X118810714Y-125657142D01*
X119810714Y-127657142D02*
X121239285Y-127657142D01*
X121382142Y-129085714D01*
X121239285Y-128942857D01*
X120953571Y-128800000D01*
X120239285Y-128800000D01*
X119953571Y-128942857D01*
X119810714Y-129085714D01*
X119667857Y-129371428D01*
X119667857Y-130085714D01*
X119810714Y-130371428D01*
X119953571Y-130514285D01*
X120239285Y-130657142D01*
X120953571Y-130657142D01*
X121239285Y-130514285D01*
X121382142Y-130371428D01*
X118810714Y-127657142D02*
X117810714Y-130657142D01*
X116810714Y-127657142D01*
M02*
